<svg width="44" height="44" viewBox="0 0 44 44" fill="none" xmlns="http://www.w3.org/2000/svg">
<g filter="url(#filter0_d)">
<circle cx="21" cy="20" r="20" fill="white"/>
<circle cx="21" cy="20" r="19.5" stroke="#F1E4E4"/>
</g>
<path d="M21 8C14.4047 8 9 13.4047 9 20C9 26.5953 14.4047 32 21 32C27.5953 32 33 26.5953 33 20C33 13.4047 27.5953 8 21 8Z" fill="#E2E2E7"/>
<path d="M33 20C33 26.5953 27.5953 32 21 32V8C27.5953 8 33 13.4047 33 20Z" fill="#D3D3D8"/>
<path d="M31.5469 20C31.5469 25.8218 26.8218 30.5469 21 30.5469C15.1782 30.5469 10.4531 25.8218 10.4531 20C10.4531 14.1782 15.1782 9.45312 21 9.45312C26.8218 9.45312 31.5469 14.1782 31.5469 20Z" fill="#ECECF1"/>
<path d="M31.5469 20C31.5469 25.8218 26.8218 30.5469 21 30.5469V9.45312C26.8218 9.45312 31.5469 14.1782 31.5469 20Z" fill="#E2E2E7"/>
<path d="M27.6656 13.9673L27.6094 13.3907L27.0328 13.3345C26.85 13.3204 23.8828 13.025 21 13.5313C19.2984 13.8407 17.6109 14.4313 16.5282 15.5282C13.7719 18.2845 13.7719 21.7156 16.5282 24.4718C17.9063 25.8501 19.4531 26.5391 21 26.5391C22.5469 26.5391 24.0938 25.8501 25.4718 24.4718C28.4251 21.5189 27.6938 14.2624 27.6656 13.9673Z" fill="#A8D32A"/>
<path d="M25.4718 24.4718C24.0938 25.8501 22.5469 26.5391 21 26.5391V13.5313C23.8828 13.025 26.85 13.3204 27.0328 13.3345L27.6094 13.3907L27.6656 13.9673C27.6938 14.2624 28.4251 21.5189 25.4718 24.4718Z" fill="#93BF00"/>
<path d="M22.3077 19.6907L24.2064 20.3233L23.7563 21.6592L21.1968 20.8016L20.311 21.6874L21 21.9125L22.2235 22.3203L21.7734 23.6562L21 23.4031L19.1999 22.7983C17.7656 24.2328 17.0202 25.7234 17.6953 27.7343L16.3594 28.1703C15.6141 25.9765 16.1204 23.8812 18.2016 21.8L17.3437 19.2265L18.6797 18.7764L19.3125 20.689L20.1984 19.8031L19.3407 17.2437L20.6766 16.7938L21 17.764L21.3093 18.6922L23.4889 16.5266L24.4733 17.511L22.3077 19.6907Z" fill="#93BF00"/>
<path d="M21 21.9126L22.2235 22.3204L21.7734 23.6563L21 23.4031V21.9126Z" fill="#81A713"/>
<path d="M22.3077 19.6907L24.2064 20.3233L23.7563 21.6592L21.1968 20.8016L21 20.9984V17.764L21.3093 18.6922L23.4891 16.5266L24.4733 17.5108L22.3077 19.6907Z" fill="#81A713"/>
<defs>
<filter id="filter0_d" x="0" y="0" width="44" height="44" filterUnits="userSpaceOnUse" color-interpolation-filters="sRGB">
<feFlood flood-opacity="0" result="BackgroundImageFix"/>
<feColorMatrix in="SourceAlpha" type="matrix" values="0 0 0 0 0 0 0 0 0 0 0 0 0 0 0 0 0 0 127 0" result="hardAlpha"/>
<feOffset dx="1" dy="2"/>
<feGaussianBlur stdDeviation="1"/>
<feComposite in2="hardAlpha" operator="out"/>
<feColorMatrix type="matrix" values="0 0 0 0 0 0 0 0 0 0 0 0 0 0 0 0 0 0 0.35 0"/>
<feBlend mode="normal" in2="BackgroundImageFix" result="effect1_dropShadow"/>
<feBlend mode="normal" in="SourceGraphic" in2="effect1_dropShadow" result="shape"/>
</filter>
</defs>
</svg>
