<svg width="44" height="44" viewBox="0 0 44 44" fill="none" xmlns="http://www.w3.org/2000/svg">
<g filter="url(#filter0_d)">
<circle cx="21" cy="20" r="20" fill="white"/>
<circle cx="21" cy="20" r="19.5" stroke="#F1E4E4"/>
</g>
<path d="M28.5 17.7499C28.5 18.8825 28.2769 20.0041 27.8435 21.0505C27.41 22.0969 26.7747 23.0477 25.9738 23.8487C25.1729 24.6496 24.2221 25.2849 23.1756 25.7183C22.1292 26.1518 21.0077 26.3749 19.875 26.3749C18.7423 26.3749 17.6208 26.1518 16.5744 25.7183C15.5279 25.2849 14.5771 24.6496 13.7762 23.8487C12.9753 23.0477 12.34 22.0969 11.9065 21.0505C11.4731 20.0041 11.25 18.8825 11.25 17.7499C11.25 17.4972 11.2608 17.2472 11.2823 16.9999C11.4756 14.7857 12.516 12.7316 14.1868 11.2659C15.8576 9.80014 18.0297 9.03597 20.2502 9.13269C22.4707 9.22941 24.5681 10.1796 26.1051 11.785C27.6421 13.3905 28.5 15.5273 28.5 17.7499Z" fill="#9CE6ED"/>
<path d="M28.5 17.7501C28.5008 19.222 28.1246 20.6696 27.4072 21.955C26.6899 23.2403 25.6553 24.3205 24.4022 25.0926L22.5 23.0001V20.0001H21L19.5 17.7501L21 16.6251H22.875L24 15.1251L23.25 13.2501L25.5961 11.2954C26.5101 12.1039 27.2418 13.0975 27.7424 14.2104C28.2431 15.3232 28.5013 16.5298 28.5 17.7501Z" fill="#02C26A"/>
<path d="M22.875 26.75H25.875V30.5H22.875V26.75Z" fill="#4367E0"/>
<path d="M25.875 23.75H28.875V30.5H25.875V23.75Z" fill="#4976F2"/>
<path d="M28.875 20H31.875V30.5H28.875V20Z" fill="#548AFF"/>
<path d="M23.295 9.83001L20.625 12.5V14.75L18.375 16.25L16.875 14.75H15V13.25L13.2652 12.2089C14.4587 10.7863 16.0792 9.78658 17.886 9.35803C19.6929 8.92948 21.5897 9.095 23.295 9.83001Z" fill="#02C26A"/>
<path d="M18.75 20.375L17.25 21.5V25.9681C15.508 25.411 13.9881 24.3147 12.9097 22.8376C11.8313 21.3605 11.2501 19.5789 11.25 17.75C11.25 17.4973 11.2608 17.2473 11.2823 17H13.5L14.625 18.5H17.625L18.75 20.375Z" fill="#02C26A"/>
<path d="M19.5 30.125H32.25V30.875H19.5V30.125Z" fill="#A6CFFF"/>
<path d="M13.875 20.75C13.875 20.3358 13.0355 20 12 20C10.9645 20 10.125 20.3358 10.125 20.75V30.125C10.125 30.5392 10.9645 30.875 12 30.875C13.0355 30.875 13.875 30.5392 13.875 30.125V20.75Z" fill="#FFC431"/>
<path d="M12 21.5C13.0355 21.5 13.875 21.1642 13.875 20.75C13.875 20.3358 13.0355 20 12 20C10.9645 20 10.125 20.3358 10.125 20.75C10.125 21.1642 10.9645 21.5 12 21.5Z" fill="#FFD873"/>
<path d="M17.625 24.5C17.625 24.0858 16.7855 23.75 15.75 23.75C14.7145 23.75 13.875 24.0858 13.875 24.5V30.125C13.875 30.5392 14.7145 30.875 15.75 30.875C16.7855 30.875 17.625 30.5392 17.625 30.125V24.5Z" fill="#FFC431"/>
<path d="M15.75 25.25C16.7855 25.25 17.625 24.9142 17.625 24.5C17.625 24.0858 16.7855 23.75 15.75 23.75C14.7145 23.75 13.875 24.0858 13.875 24.5C13.875 24.9142 14.7145 25.25 15.75 25.25Z" fill="#FFD873"/>
<path d="M21.375 26.375C21.375 25.9608 20.5355 25.625 19.5 25.625C18.4645 25.625 17.625 25.9608 17.625 26.375V30.125C17.625 30.5392 18.4645 30.875 19.5 30.875C20.5355 30.875 21.375 30.5392 21.375 30.125V26.375Z" fill="#FFC431"/>
<path d="M19.5 27.125C20.5355 27.125 21.375 26.7892 21.375 26.375C21.375 25.9608 20.5355 25.625 19.5 25.625C18.4645 25.625 17.625 25.9608 17.625 26.375C17.625 26.7892 18.4645 27.125 19.5 27.125Z" fill="#FFD873"/>
<path d="M13.6265 22.625C13.9901 22.625 14.1422 23.094 13.8448 23.3031C13.7264 23.3843 13.5991 23.4515 13.4653 23.5034C13.0678 23.6623 12.5475 23.75 12 23.75C11.4525 23.75 10.9322 23.6623 10.5347 23.5034C10.4009 23.4515 10.2736 23.3843 10.1552 23.3031C9.85781 23.094 10.0099 22.625 10.3735 22.625C10.448 22.6246 10.5208 22.6469 10.5824 22.6889C10.7708 22.8189 11.2536 23 12 23C12.7464 23 13.2292 22.8189 13.4176 22.6889C13.4792 22.6469 13.552 22.6246 13.6265 22.625H13.6265Z" fill="#FFB401"/>
<path d="M19.5 23.75H20.25V24.5H19.5V23.75Z" fill="#FFD873"/>
<path d="M31.125 15.5H29.625V16.25H30.2197L22.7197 23.75H21V24.5H22.875C22.9745 24.5 23.0698 24.4605 23.1402 24.3902L30.75 16.7803V17.375H31.5V15.875C31.5 15.7755 31.4605 15.6802 31.3902 15.6098C31.3198 15.5395 31.2245 15.5 31.125 15.5Z" fill="#FFD873"/>
<path d="M13.6265 24.5C13.9901 24.5 14.1422 24.969 13.8448 25.1781C13.7264 25.2593 13.5991 25.3265 13.4653 25.3784C13.0678 25.5373 12.5475 25.625 12 25.625C11.4525 25.625 10.9322 25.5373 10.5347 25.3784C10.4009 25.3265 10.2736 25.2593 10.1552 25.1781C9.85781 24.969 10.0099 24.5 10.3735 24.5C10.448 24.4996 10.5208 24.5219 10.5824 24.5639C10.7708 24.6939 11.2536 24.875 12 24.875C12.7464 24.875 13.2292 24.6939 13.4176 24.5639C13.4792 24.5219 13.552 24.4996 13.6265 24.5H13.6265Z" fill="#FFB401"/>
<path d="M13.6265 26.375C13.9901 26.375 14.1422 26.844 13.8448 27.0531C13.7264 27.1343 13.5991 27.2015 13.4653 27.2534C13.0678 27.4123 12.5475 27.5 12 27.5C11.4525 27.5 10.9322 27.4123 10.5347 27.2534C10.4009 27.2015 10.2736 27.1343 10.1552 27.0531C9.85781 26.844 10.0099 26.375 10.3735 26.375C10.448 26.3746 10.5208 26.3969 10.5824 26.4389C10.7708 26.5689 11.2536 26.75 12 26.75C12.7464 26.75 13.2292 26.5689 13.4176 26.4389C13.4792 26.3969 13.552 26.3746 13.6265 26.375H13.6265Z" fill="#FFB401"/>
<path d="M13.6265 28.25C13.9901 28.25 14.1422 28.719 13.8448 28.9281C13.7264 29.0093 13.5991 29.0765 13.4653 29.1284C13.0678 29.2873 12.5475 29.375 12 29.375C11.4525 29.375 10.9322 29.2873 10.5347 29.1284C10.4009 29.0765 10.2736 29.0093 10.1552 28.9281C9.85781 28.719 10.0099 28.25 10.3735 28.25C10.448 28.2496 10.5208 28.2719 10.5824 28.3139C10.7708 28.4439 11.2536 28.625 12 28.625C12.7464 28.625 13.2292 28.4439 13.4176 28.3139C13.4792 28.2719 13.552 28.2496 13.6265 28.25H13.6265Z" fill="#FFB401"/>
<path d="M17.3765 26.375C17.74 26.375 17.8922 26.844 17.5947 27.0531C17.4764 27.1343 17.3491 27.2015 17.2153 27.2534C16.8178 27.4123 16.2975 27.5 15.75 27.5C15.2025 27.5 14.6822 27.4123 14.2847 27.2534C14.1509 27.2015 14.0236 27.1343 13.9052 27.0531C13.6078 26.844 13.7599 26.375 14.1235 26.375C14.198 26.3746 14.2708 26.3969 14.3324 26.4389C14.5208 26.5689 15.0036 26.75 15.75 26.75C16.4964 26.75 16.9792 26.5689 17.1676 26.4389C17.2291 26.3969 17.302 26.3746 17.3765 26.375H17.3765Z" fill="#FFB401"/>
<path d="M17.3765 28.25C17.74 28.25 17.8922 28.719 17.5947 28.9281C17.4764 29.0093 17.3491 29.0765 17.2153 29.1284C16.8178 29.2873 16.2975 29.375 15.75 29.375C15.2025 29.375 14.6822 29.2873 14.2847 29.1284C14.1509 29.0765 14.0236 29.0093 13.9052 28.9281C13.6078 28.719 13.7599 28.25 14.1235 28.25C14.198 28.2496 14.2708 28.2719 14.3324 28.3139C14.5208 28.4439 15.0036 28.625 15.75 28.625C16.4964 28.625 16.9792 28.4439 17.1676 28.3139C17.2291 28.2719 17.302 28.2496 17.3765 28.25H17.3765Z" fill="#FFB401"/>
<path d="M21.1265 28.25C21.4901 28.25 21.6422 28.719 21.3448 28.9281C21.2264 29.0093 21.0991 29.0765 20.9653 29.1284C20.5678 29.2873 20.0475 29.375 19.5 29.375C18.9525 29.375 18.4322 29.2873 18.0347 29.1284C17.9009 29.0765 17.7736 29.0093 17.6552 28.9281C17.3578 28.719 17.5099 28.25 17.8735 28.25C17.948 28.2496 18.0208 28.2719 18.0824 28.3139C18.2708 28.4439 18.7536 28.625 19.5 28.625C20.2464 28.625 20.7292 28.4439 20.9176 28.3139C20.9792 28.2719 21.052 28.2496 21.1265 28.25H21.1265Z" fill="#FFB401"/>
<path d="M14.25 24.875C14.25 24.6679 14.0821 24.5 13.875 24.5C13.6679 24.5 13.5 24.6679 13.5 24.875V29.75C13.5 29.9571 13.6679 30.125 13.875 30.125C14.0821 30.125 14.25 29.9571 14.25 29.75V24.875Z" fill="#FFB401"/>
<path d="M18 26.75C18 26.5429 17.8321 26.375 17.625 26.375C17.4179 26.375 17.25 26.5429 17.25 26.75V29.75C17.25 29.9571 17.4179 30.125 17.625 30.125C17.8321 30.125 18 29.9571 18 29.75V26.75Z" fill="#FFB401"/>
<defs>
<filter id="filter0_d" x="0" y="0" width="44" height="44" filterUnits="userSpaceOnUse" color-interpolation-filters="sRGB">
<feFlood flood-opacity="0" result="BackgroundImageFix"/>
<feColorMatrix in="SourceAlpha" type="matrix" values="0 0 0 0 0 0 0 0 0 0 0 0 0 0 0 0 0 0 127 0" result="hardAlpha"/>
<feOffset dx="1" dy="2"/>
<feGaussianBlur stdDeviation="1"/>
<feComposite in2="hardAlpha" operator="out"/>
<feColorMatrix type="matrix" values="0 0 0 0 0 0 0 0 0 0 0 0 0 0 0 0 0 0 0.35 0"/>
<feBlend mode="normal" in2="BackgroundImageFix" result="effect1_dropShadow"/>
<feBlend mode="normal" in="SourceGraphic" in2="effect1_dropShadow" result="shape"/>
</filter>
</defs>
</svg>
