<svg width="44" height="44" viewBox="0 0 44 44" fill="none" xmlns="http://www.w3.org/2000/svg">
<g filter="url(#filter0_d)">
<circle cx="21" cy="20" r="20" fill="white"/>
<circle cx="21" cy="20" r="19.5" stroke="#F1E4E4"/>
</g>
<g clip-path="url(#clip0)">
<path d="M27.0644 19.2939L29.4296 19.9998L31.2873 19.2939L27.9934 13.6472L25.245 11.3213L23.9274 13.58L24.8638 17.085L27.0644 19.2939Z" fill="#00B9A0"/>
<path d="M20.9997 8.24756L18.0043 13.7035L17.9723 14.5175L18.7312 15.0587L19.8939 15.4901L20.9997 15.0587H20.9998L21.4703 11.6531L20.9998 8.24761H20.9997V8.24756Z" fill="#00CB75"/>
<path d="M20.9998 8.2478V15.0589L22.6782 14.4628L23.4385 12.6898L20.9998 8.2478Z" fill="#00B9A0"/>
<path d="M20.9997 15.0588H18.7312L18.5355 17.1764L20.9998 19.294V19.2941L21.4703 17.1764L20.9998 15.0588H20.9997Z" fill="#ACE233"/>
<path d="M23.4385 12.6897L20.9998 15.0588V19.294L23.8232 19.7646L27.0644 19.294L23.4385 12.6897Z" fill="#00CB75"/>
<path d="M30.176 13.647C29.8345 13.647 27.6965 13.647 27.3526 13.647C26.1661 13.647 25.1621 12.6521 25.239 11.3972C25.316 10.1424 26.4658 9.22739 27.7135 9.44264C28.6224 7.82234 30.8466 7.48588 32.1858 8.85004C33.2586 9.94291 33.2759 11.6744 32.2106 12.7813C31.6733 13.3395 30.9509 13.647 30.176 13.647Z" fill="#C0DBF2"/>
<path d="M16.4587 20.2116L20.9998 19.294V19.294V19.294L17.1565 12.1211L14.0062 13.647L10.7122 19.294L16.4587 20.2116Z" fill="#00B9A0"/>
<path d="M14.6469 13.6471C14.3053 13.6471 12.1673 13.6471 11.8234 13.6471C10.6298 13.6471 9.63325 12.6457 9.70986 11.3972C9.78699 10.1396 10.9389 9.228 12.1844 9.44267C13.0932 7.822 15.3176 7.4861 16.6566 8.85007C17.7376 9.95123 17.7388 11.6827 16.6814 12.7813C16.1442 13.3395 15.4217 13.6471 14.6469 13.6471Z" fill="#D7E9FC"/>
<path d="M14.9295 23.2089L16.14 26.1955L18.6704 26.4546L20.9998 25.6468L21.4703 22.4704L20.9998 19.2939C20.3166 19.2939 16.0405 19.2939 15.3528 19.2939L14.9295 23.2089Z" fill="#BCFBFF"/>
<path d="M23.4296 26.4545L25.8596 26.1955L27.1565 23.1997L26.6468 19.2939C25.9636 19.2939 21.6875 19.2939 20.9998 19.2939V25.6467L23.4296 26.4545Z" fill="#45F6FF"/>
<path d="M16.14 26.1955C15.8789 25.2732 15.6757 24.2704 15.5412 23.2089C15.3109 21.3907 15.3597 19.9955 15.3528 19.7309V19.2939C14.5842 19.2939 9.77368 19.2939 9 19.2939V19.9998C9 21.463 9.26023 22.886 9.75871 24.2163C10.2595 25.5528 11.0008 26.7956 11.9601 27.8914L14.2078 27.5291L16.14 26.1955Z" fill="#45F6FF"/>
<path d="M27.682 27.4114L25.8596 26.1955C26.1207 25.2732 26.3238 24.2703 26.4583 23.2088C26.665 21.5777 26.6467 20.4369 26.6467 19.2939H32.9996V19.6469C32.9644 19.856 33.3731 24.0741 30.0497 27.8798L27.682 27.4114Z" fill="#7DD5F4"/>
<path d="M20.9998 31.9996C24.3814 31.9996 27.6746 30.5996 30.0497 27.8798C29.8284 27.7571 29.6382 27.6518 29.4169 27.5291C28.3232 26.9182 27.0733 26.4854 25.8595 26.1956L20.9998 31.9996Z" fill="#69AFE7"/>
<path d="M20.9997 31.9996C17.6211 31.9996 14.3341 30.6029 11.9601 27.8914C12.1778 27.7647 12.3649 27.6559 12.5826 27.5291C13.6764 26.9181 14.9263 26.4854 16.14 26.1956L20.9997 31.9996Z" fill="#7DD5F4"/>
<path d="M16.14 26.1957C16.5514 27.6488 17.107 28.9016 17.7655 29.8676C18.6815 31.2113 19.7966 31.9998 20.9998 31.9998L21.4703 28.8234L20.9998 25.647C19.3982 25.6469 17.735 25.8148 16.14 26.1957Z" fill="#45F6FF"/>
<path d="M25.8595 26.1957C24.2642 25.8147 22.6009 25.647 20.9998 25.647V31.9998C22.2028 31.9998 23.318 31.2113 24.234 29.8676C24.8925 28.9016 25.4481 27.6488 25.8595 26.1957Z" fill="#7DD5F4"/>
</g>
<defs>
<filter id="filter0_d" x="0" y="0" width="44" height="44" filterUnits="userSpaceOnUse" color-interpolation-filters="sRGB">
<feFlood flood-opacity="0" result="BackgroundImageFix"/>
<feColorMatrix in="SourceAlpha" type="matrix" values="0 0 0 0 0 0 0 0 0 0 0 0 0 0 0 0 0 0 127 0" result="hardAlpha"/>
<feOffset dx="1" dy="2"/>
<feGaussianBlur stdDeviation="1"/>
<feComposite in2="hardAlpha" operator="out"/>
<feColorMatrix type="matrix" values="0 0 0 0 0 0 0 0 0 0 0 0 0 0 0 0 0 0 0.35 0"/>
<feBlend mode="normal" in2="BackgroundImageFix" result="effect1_dropShadow"/>
<feBlend mode="normal" in="SourceGraphic" in2="effect1_dropShadow" result="shape"/>
</filter>
<clipPath id="clip0">
<rect width="24" height="24" fill="white" transform="translate(9 8)"/>
</clipPath>
</defs>
</svg>
