<svg width="44" height="44" viewBox="0 0 44 44" fill="none" xmlns="http://www.w3.org/2000/svg">
<g filter="url(#filter0_d)">
<circle cx="21" cy="20" r="20" fill="white"/>
<circle cx="21" cy="20" r="19.5" stroke="#F1E4E4"/>
</g>
<g clip-path="url(#clip0)">
<path d="M16.6108 22.8608C15.2898 23.0277 11.0523 23.1866 11.0523 23.1866V28.7061H30.709V12.5686H30.7056C27.859 17.5958 22.0872 22.169 16.6108 22.8608Z" fill="#E2F1FE"/>
<path d="M30.7056 12.5688C30.3332 13.2264 29.9098 13.8704 29.4428 14.495V28.7063H30.709V12.5688H30.7056Z" fill="#C4E3FF"/>
<path d="M26.3118 25.2947C26.1109 25.2947 25.9481 25.1319 25.9481 24.931V24.8842C25.9481 24.6834 26.1109 24.5205 26.3118 24.5205C26.5127 24.5205 26.6755 24.6834 26.6755 24.8842V24.931C26.6755 25.1319 26.5127 25.2947 26.3118 25.2947Z" fill="#C4E3FF"/>
<path d="M26.6755 26.6533V26.7001C26.6755 26.9009 26.5127 27.0638 26.3118 27.0638C26.1109 27.0638 25.9481 26.9009 25.9481 26.7001V26.6533C25.9481 26.4524 26.1109 26.2896 26.3118 26.2896C26.5127 26.2896 26.6755 26.4524 26.6755 26.6533Z" fill="#C4E3FF"/>
<path d="M26.6755 23.1108V23.1576C26.6755 23.3584 26.5127 23.5213 26.3118 23.5213C26.1109 23.5213 25.9481 23.3584 25.9481 23.1576V23.1108C25.9481 22.9099 26.1109 22.7471 26.3118 22.7471C26.5127 22.7471 26.6755 22.9099 26.6755 23.1108Z" fill="#C4E3FF"/>
<path d="M26.3118 21.7523C26.1109 21.7523 25.9481 21.5894 25.9481 21.3885V21.3417C25.9481 21.1409 26.1109 20.978 26.3118 20.978C26.5127 20.978 26.6755 21.1409 26.6755 21.3417V21.3885C26.6755 21.5894 26.5127 21.7523 26.3118 21.7523Z" fill="#C4E3FF"/>
<path d="M26.3118 19.9598C26.1109 19.9598 25.9481 19.7969 25.9481 19.596V19.5493C25.9481 19.3484 26.1109 19.1855 26.3118 19.1855C26.5127 19.1855 26.6755 19.3484 26.6755 19.5493V19.596C26.6755 19.7969 26.5127 19.9598 26.3118 19.9598Z" fill="#C4E3FF"/>
<path d="M21.017 25.2947C20.8161 25.2947 20.6533 25.1319 20.6533 24.931V24.8842C20.6533 24.6834 20.8161 24.5205 21.017 24.5205C21.2179 24.5205 21.3807 24.6834 21.3807 24.8842V24.931C21.3807 25.1319 21.2179 25.2947 21.017 25.2947Z" fill="#C4E3FF"/>
<path d="M21.3807 26.6533V26.7001C21.3807 26.9009 21.2179 27.0638 21.017 27.0638C20.8161 27.0638 20.6533 26.9009 20.6533 26.7001V26.6533C20.6533 26.4524 20.8161 26.2896 21.017 26.2896C21.2179 26.2896 21.3807 26.4524 21.3807 26.6533Z" fill="#C4E3FF"/>
<path d="M21.3807 23.1108V23.1576C21.3807 23.3584 21.2179 23.5213 21.017 23.5213C20.8161 23.5213 20.6533 23.3584 20.6533 23.1576V23.1108C20.6533 22.9099 20.8161 22.7471 21.017 22.7471C21.2179 22.7471 21.3807 22.9099 21.3807 23.1108Z" fill="#C4E3FF"/>
<path d="M15.7222 25.295C15.5213 25.295 15.3585 25.1321 15.3585 24.9313V24.8845C15.3585 24.6836 15.5213 24.5208 15.7222 24.5208C15.9231 24.5208 16.0859 24.6836 16.0859 24.8845V24.9313C16.0859 25.1321 15.9231 25.295 15.7222 25.295Z" fill="#C4E3FF"/>
<path d="M16.0859 26.6535V26.7003C16.0859 26.9012 15.9231 27.064 15.7222 27.064C15.5213 27.064 15.3585 26.9012 15.3585 26.7003V26.6535C15.3585 26.4526 15.5213 26.2898 15.7222 26.2898C15.9231 26.2898 16.0859 26.4526 16.0859 26.6535Z" fill="#C4E3FF"/>
<path d="M32.4059 12.2849L31.876 10.8487C31.8538 10.733 31.776 10.6303 31.6592 10.5814C31.6184 10.5644 31.5764 10.5558 31.5346 10.5539C31.5317 10.5537 31.5287 10.5536 31.5258 10.5535C31.5204 10.5534 31.515 10.5534 31.5097 10.5536C31.4691 10.554 31.4279 10.5609 31.3876 10.5757L29.8937 11.127C29.7052 11.1965 29.6088 11.4057 29.6784 11.5941C29.7479 11.7825 29.957 11.879 30.1455 11.8094L30.8308 11.5565C29.6244 14.0424 27.6538 16.4638 25.2091 18.4481C22.4613 20.6784 19.3904 22.1175 16.562 22.5003C15.2752 22.6745 11.3212 22.8217 11.2814 22.8231C11.0806 22.8305 10.9239 22.9992 10.9313 23.2C10.9386 23.3961 11.0999 23.5503 11.2946 23.5503C11.2991 23.5503 11.3036 23.5502 11.3082 23.55C11.4721 23.544 15.3377 23.4001 16.6596 23.2212C19.6184 22.8206 22.8175 21.3261 25.6675 19.0128C28.1908 16.9647 30.2284 14.4594 31.4816 11.8811L31.7235 12.5367C31.7777 12.6836 31.9167 12.7746 32.0647 12.7746C32.1065 12.7746 32.1491 12.7673 32.1906 12.752C32.3791 12.6825 32.4755 12.4734 32.4059 12.2849Z" fill="#0ED290"/>
<path d="M15.7222 30.9482C15.5213 30.9482 15.3585 30.7854 15.3585 30.5845V29.0644C15.3585 28.8635 15.5213 28.7007 15.7222 28.7007C15.923 28.7007 16.0859 28.8635 16.0859 29.0644V30.5845C16.0859 30.7854 15.9231 30.9482 15.7222 30.9482Z" fill="#C4E3FF"/>
<path d="M21.017 30.9482C20.8162 30.9482 20.6533 30.7854 20.6533 30.5845V29.0644C20.6533 28.8635 20.8162 28.7007 21.017 28.7007C21.2179 28.7007 21.3807 28.8635 21.3807 29.0644V30.5845C21.3807 30.7854 21.2179 30.9482 21.017 30.9482Z" fill="#C4E3FF"/>
<path d="M26.3118 30.9482C26.1109 30.9482 25.9481 30.7854 25.9481 30.5845V29.0644C25.9481 28.8635 26.1109 28.7007 26.3118 28.7007C26.5126 28.7007 26.6755 28.8635 26.6755 29.0644V30.5845C26.6755 30.7854 26.5126 30.9482 26.3118 30.9482Z" fill="#C4E3FF"/>
<path d="M32.8927 28.9473L31.1241 27.6559C31.112 27.6472 31.0979 27.6385 31.0829 27.6312C31.078 27.6288 31.0737 27.6268 31.0688 27.6244C30.9044 27.557 30.71 27.6758 30.71 27.8664V28.1283C30.6919 28.3801 30.5039 28.3947 30.4229 28.4153H11.2948V11.6343C11.2948 11.4728 11.4258 11.3418 11.5874 11.3418H11.8433C12.0566 11.3418 12.1798 11.0998 12.0542 10.9276L10.7628 9.15905C10.6586 9.01599 10.4457 9.01599 10.3419 9.15905L9.05049 10.9276C8.92489 11.0998 9.04806 11.3418 9.26095 11.3418H9.5173C9.67888 11.3418 9.80991 11.4728 9.80991 11.6343V28.4153V29.5033V29.5035C9.80991 29.7226 9.98754 29.9002 10.2067 29.9002H30.4229C30.622 29.9324 30.63 30.0059 30.6716 30.0433C30.6959 30.0855 30.71 30.1345 30.71 30.1868V30.4487C30.71 30.6534 30.9321 30.7746 31.1023 30.6742C31.11 30.6694 31.1173 30.6645 31.1241 30.6597L32.8927 29.3683C33.0357 29.264 33.0357 29.0511 32.8927 28.9473Z" fill="#6C7FD8"/>
<path d="M32.8927 29.3684L31.1241 30.6598C31.1173 30.6646 31.11 30.6695 31.1023 30.6743C30.932 30.7747 30.7099 30.6534 30.7099 30.4488V30.1869C30.7099 30.1346 30.6959 30.0856 30.6716 30.0434C30.7769 30.1161 30.8705 30.1656 30.9636 30.1574C31.0033 30.1535 31.0431 30.1394 31.0795 30.1127L32.0993 29.3684C32.2424 29.2641 32.2424 29.0512 32.0993 28.9474L31.0795 28.203C31.0431 28.1764 31.0033 28.1623 30.9636 28.1584C30.8675 28.1502 30.787 28.1662 30.6881 28.2389C30.7022 28.205 30.7099 28.1676 30.7099 28.1284V27.8665C30.7099 27.6759 30.9044 27.5571 31.0688 27.6245C31.0736 27.6269 31.078 27.6289 31.0829 27.6313C31.0979 27.6386 31.112 27.6473 31.1241 27.656L32.8927 28.9474C33.0357 29.0512 33.0357 29.2641 32.8927 29.3684Z" fill="#4F66D0"/>
<path d="M12.0542 10.9276L10.7628 9.15905C10.6586 9.01599 10.4457 9.01599 10.3419 9.15905L10.1556 9.41413L11.2608 10.9276C11.3864 11.0998 11.2632 11.3418 11.0498 11.3418H10.8832C10.6723 11.3418 10.5013 11.5128 10.5013 11.7237L10.4778 28.0588C10.4775 28.2556 10.6369 28.4152 10.8336 28.4152H11.2948V11.6343C11.2948 11.4728 11.4257 11.3418 11.5873 11.3418H11.8432C12.0567 11.3418 12.1798 11.0998 12.0542 10.9276Z" fill="#4F66D0"/>
<path d="M20.8954 13.631L21.781 12.4565C21.902 12.2961 21.8699 12.0681 21.7096 11.9471C21.5491 11.8261 21.3211 11.8582 21.2002 12.0186L20.4384 13.0288L19.671 12.0176C19.5495 11.8577 19.3214 11.8264 19.1614 11.9478C19.0014 12.0692 18.9701 12.2973 19.0916 12.4574L19.9833 13.6324L18.979 14.9643C18.858 15.1248 18.89 15.3528 19.0504 15.4737C19.1521 15.5535 19.392 15.5955 19.5598 15.4023L20.4403 14.2345L21.3669 15.4555C21.4823 15.5604 21.6193 15.6767 21.8764 15.5253C22.0364 15.4039 22.0677 15.1758 21.9463 15.0157L20.8954 13.631Z" fill="#678D98"/>
<path d="M16.5288 11.0234C16.4766 11.0114 16.0084 10.9137 15.6707 11.1826C15.534 11.2915 15.371 11.499 15.371 11.8695V12.5157H15.2354C15.0346 12.5157 14.8717 12.6786 14.8717 12.8795C14.8717 13.0803 15.0346 13.2432 15.2354 13.2432H15.371V15.7682C15.371 15.9691 15.5338 16.1319 15.7347 16.1319C15.9356 16.1319 16.0984 15.9691 16.0984 15.7682V13.2432H16.394C16.5949 13.2432 16.7577 13.0803 16.7577 12.8795C16.7577 12.6786 16.5949 12.5157 16.394 12.5157H16.0984V11.8695C16.0984 11.8024 16.111 11.7621 16.1235 11.752C16.1623 11.7205 16.2869 11.7159 16.3686 11.733C16.5635 11.7761 16.757 11.6542 16.8018 11.4594C16.8468 11.2636 16.7246 11.0685 16.5288 11.0234Z" fill="#678D98"/>
<path d="M18.2252 11.7407C18.0387 11.6661 17.8271 11.7569 17.7524 11.9434C17.7276 12.0056 17.1496 13.4933 17.7387 15.7032C17.7821 15.8659 17.9292 15.9733 18.0899 15.9733C18.2765 15.977 18.4984 15.7774 18.4416 15.5158C17.9198 13.5588 18.4207 12.2319 18.4283 12.2123C18.5021 12.0261 18.4113 11.8152 18.2252 11.7407Z" fill="#678D98"/>
<path d="M23.1993 11.8359C23.1247 11.6494 22.9131 11.5587 22.7265 11.6333C22.54 11.7079 22.4493 11.9195 22.5238 12.106C22.529 12.1191 23.0377 13.4293 22.5101 15.4084C22.4584 15.6024 22.5738 15.8017 22.7679 15.8535C22.9165 15.8934 23.136 15.8203 23.213 15.5957C23.8022 13.3859 23.2242 11.8982 23.1993 11.8359Z" fill="#678D98"/>
</g>
<defs>
<filter id="filter0_d" x="0" y="0" width="44" height="44" filterUnits="userSpaceOnUse" color-interpolation-filters="sRGB">
<feFlood flood-opacity="0" result="BackgroundImageFix"/>
<feColorMatrix in="SourceAlpha" type="matrix" values="0 0 0 0 0 0 0 0 0 0 0 0 0 0 0 0 0 0 127 0" result="hardAlpha"/>
<feOffset dx="1" dy="2"/>
<feGaussianBlur stdDeviation="1"/>
<feComposite in2="hardAlpha" operator="out"/>
<feColorMatrix type="matrix" values="0 0 0 0 0 0 0 0 0 0 0 0 0 0 0 0 0 0 0.35 0"/>
<feBlend mode="normal" in2="BackgroundImageFix" result="effect1_dropShadow"/>
<feBlend mode="normal" in="SourceGraphic" in2="effect1_dropShadow" result="shape"/>
</filter>
<clipPath id="clip0">
<rect width="24" height="24" fill="white" transform="translate(9 8)"/>
</clipPath>
</defs>
</svg>
