<svg width="44" height="44" viewBox="0 0 44 44" fill="none" xmlns="http://www.w3.org/2000/svg">
<g filter="url(#filter0_d)">
<circle cx="21" cy="20" r="20" fill="white"/>
<circle cx="21" cy="20" r="19.5" stroke="#F1E4E4"/>
</g>
<path d="M10.4531 8.70312H11.8594V22.8125H10.4531V8.70312Z" fill="#FDBF00"/>
<path d="M23.6437 13.9249L21 18.1719L16.9501 24.6688L15.7548 23.9234L21 15.5L22.4485 13.1797L23.6437 13.9249Z" fill="#FDBF00"/>
<path d="M30.1406 8.70312H31.5469V15.7812H30.1406V8.70312Z" fill="#FF9F00"/>
<path d="M22.4485 13.1797L23.6437 13.9249L21 18.1719V15.5L22.4485 13.1797Z" fill="#FF9F00"/>
<path d="M26.625 10.8594C23.911 10.8594 21.7031 13.0673 21.7031 15.7812C21.7031 18.4952 23.911 20.7031 26.625 20.7031C29.339 20.7031 31.5469 18.4952 31.5469 15.7812C31.5469 13.0673 29.339 10.8594 26.625 10.8594Z" fill="#C6E2E7"/>
<path d="M31.5469 15.7812C31.5469 18.4952 29.339 20.7031 26.625 20.7031V10.8594C29.339 10.8594 31.5469 13.0673 31.5469 15.7812Z" fill="#A8D3D8"/>
<path d="M25.9219 17.1875H27.3281V22.8125H25.9219V17.1875Z" fill="#FDBF00"/>
<path d="M26.625 17.1875H27.3281V22.8125H26.625V17.1875Z" fill="#FF9F00"/>
<path d="M26.625 22.1094C25.4577 22.1094 24.5156 23.0516 24.5156 24.2188C24.5156 25.3859 25.4577 26.3281 26.625 26.3281C27.7923 26.3281 28.7344 25.3859 28.7344 24.2188C28.7344 23.0516 27.7923 22.1094 26.625 22.1094ZM26.625 24.9219C26.2374 24.9219 25.9219 24.6064 25.9219 24.2188C25.9219 23.8311 26.2374 23.5156 26.625 23.5156C27.0126 23.5156 27.3281 23.8311 27.3281 24.2188C27.3281 24.6064 27.0126 24.9219 26.625 24.9219Z" fill="#68544F"/>
<path d="M26.625 22.1094V23.5156C27.0126 23.5156 27.3281 23.8311 27.3281 24.2188C27.3281 24.6064 27.0126 24.9219 26.625 24.9219V26.3281C27.7923 26.3281 28.7344 25.3859 28.7344 24.2188C28.7344 23.0516 27.7923 22.1094 26.625 22.1094Z" fill="#53433F"/>
<path d="M31.5469 32H21.7031L23.1094 24.9219H30.1406L31.5469 32Z" fill="#725D57"/>
<path d="M31.5469 32H26.625V24.9219H30.1406L31.5469 32Z" fill="#53433F"/>
<path d="M26.625 13.6719C25.4577 13.6719 24.5156 14.614 24.5156 15.7812C24.5156 16.9484 25.4577 17.8906 26.625 17.8906C27.7923 17.8906 28.7344 16.9484 28.7344 15.7812C28.7344 14.614 27.7923 13.6719 26.625 13.6719Z" fill="#A8D3D8"/>
<path d="M28.7344 15.7812C28.7344 16.9484 27.7923 17.8906 26.625 17.8906V13.6719C27.7923 13.6719 28.7344 14.614 28.7344 15.7812Z" fill="#8EBAC5"/>
<path d="M13.9688 19.2969C12.0282 19.2969 10.4531 20.8719 10.4531 22.8125C10.4531 24.7531 12.0282 26.3281 13.9688 26.3281C15.1923 26.3281 16.3032 25.7094 16.9501 24.6688C17.3016 24.1061 17.4844 23.4733 17.4844 22.8125C17.4844 20.8719 15.9093 19.2969 13.9688 19.2969Z" fill="#C6E2E7"/>
<path d="M17.4844 22.8125C17.4844 23.4733 17.3016 24.1061 16.9501 24.6688C16.3032 25.7094 15.1923 26.3281 13.9688 26.3281V19.2969C15.9093 19.2969 17.4844 20.8719 17.4844 22.8125Z" fill="#A8D3D8"/>
<path d="M13.2656 22.1094H14.6719V23.5156H13.2656V22.1094Z" fill="#A8D3D8"/>
<path d="M13.9688 22.1094H14.6719V23.5156H13.9688V22.1094Z" fill="#8EBAC5"/>
<path d="M9 8H33V9.40625H9V8Z" fill="#725D57"/>
<path d="M21 8H33V9.40625H21V8Z" fill="#68544F"/>
<defs>
<filter id="filter0_d" x="0" y="0" width="44" height="44" filterUnits="userSpaceOnUse" color-interpolation-filters="sRGB">
<feFlood flood-opacity="0" result="BackgroundImageFix"/>
<feColorMatrix in="SourceAlpha" type="matrix" values="0 0 0 0 0 0 0 0 0 0 0 0 0 0 0 0 0 0 127 0" result="hardAlpha"/>
<feOffset dx="1" dy="2"/>
<feGaussianBlur stdDeviation="1"/>
<feComposite in2="hardAlpha" operator="out"/>
<feColorMatrix type="matrix" values="0 0 0 0 0 0 0 0 0 0 0 0 0 0 0 0 0 0 0.35 0"/>
<feBlend mode="normal" in2="BackgroundImageFix" result="effect1_dropShadow"/>
<feBlend mode="normal" in="SourceGraphic" in2="effect1_dropShadow" result="shape"/>
</filter>
</defs>
</svg>
