<svg width="44" height="44" viewBox="0 0 44 44" fill="none" xmlns="http://www.w3.org/2000/svg">
<g filter="url(#filter0_d)">
<circle cx="21" cy="20" r="20" fill="white"/>
<circle cx="21" cy="20" r="19.5" stroke="#F1E4E4"/>
</g>
<path d="M21 32C27.6094 32 33 26.6094 33 20C33 13.3906 27.6094 8 21 8C14.3906 8 9 13.3906 9 20C9 26.6094 14.3906 32 21 32Z" fill="#0E7886"/>
<path d="M18.6908 14.484C17.7407 13.8117 14.7055 11.8126 13.74 12.7779C13.0592 13.4587 13.7868 15.3834 15.4461 17.7287C12.6146 18.2138 10.7389 19.0599 10.7389 20.0227C10.7389 21.3503 14.2818 22.1172 15.4461 22.3167C13.7868 24.6622 13.0592 26.5867 13.74 27.2677C14.4209 27.9484 16.3455 27.2207 18.6908 25.5615C19.1759 28.3929 20.022 30.2685 20.9849 30.2685C22.3229 30.2685 23.0781 26.7361 23.279 25.5615C25.6244 27.2207 27.549 27.9484 28.2298 27.2677C28.9107 26.5867 28.183 24.6622 26.5237 22.3167C29.3553 21.8317 31.2308 20.9856 31.2308 20.0227C31.2308 19.0598 29.3553 18.2138 26.5237 17.7287C27.5453 16.2845 28.2137 15.0002 28.4177 14.0672C28.7114 12.3539 27.1228 12.5514 26.663 12.6614C25.7601 12.9254 24.5848 13.5601 23.2789 14.484C22.7939 11.6525 21.9477 9.77686 20.9849 9.77686C20.022 9.7769 19.176 11.6526 18.6908 14.484ZM11.9087 20.0228C11.9087 19.2409 13.4194 18.5492 15.7349 18.1285C16.186 18.7401 16.6961 19.3762 17.2575 20.0228C16.6961 20.6697 16.186 21.3057 15.7349 21.9173C14.7709 21.7418 11.9087 21.0478 11.9087 20.0228ZM20.9848 29.099C20.2027 29.099 19.511 27.5881 19.0904 25.2728C19.7019 24.8217 20.3381 24.3115 20.9848 23.75C21.6316 24.3115 22.2677 24.8215 22.8793 25.2728C22.7046 26.235 22.0052 29.099 20.9848 29.099ZM27.6064 14.3346V14.335L27.6033 14.3708L27.6032 14.3719L27.5998 14.408L27.5995 14.4096L27.5952 14.4456L27.5949 14.4478L27.5901 14.4837L27.5896 14.4867L27.5841 14.5226L27.5836 14.526L27.5775 14.5618L27.5767 14.5661L27.5701 14.6017L27.5692 14.6065L27.5619 14.6421L27.5608 14.6476L27.5531 14.683L27.5516 14.6894L27.5435 14.7247L27.5419 14.7315L27.5332 14.7666L27.5312 14.7746L27.5222 14.8094L27.5198 14.818L27.5105 14.8524L27.5078 14.8619L27.4979 14.8962L27.495 14.9064L27.4935 14.9111L27.4813 14.9515L27.471 14.9853L27.4672 14.9972L27.4564 15.0307L27.4522 15.0433L27.441 15.0764L27.4365 15.0899L27.4252 15.1227L27.4201 15.1372L27.4085 15.1694L27.403 15.1846L27.3912 15.2167L27.3851 15.2331L27.3666 15.2817L27.3545 15.3128L27.3474 15.3309L27.3351 15.3615L27.3275 15.3806L27.3151 15.4108L27.3068 15.4309L27.2944 15.4605L27.2855 15.4815L27.273 15.5107L27.2634 15.5327L27.2509 15.5614L27.2409 15.5843L27.2282 15.6124L27.2173 15.6365L27.2047 15.6639L27.1933 15.689L27.1807 15.7159L27.1684 15.7419L27.156 15.7682L27.143 15.7954L27.1306 15.8211L27.1169 15.8493L27.1045 15.8746L27.0901 15.9037L27.0887 15.9063L27.0625 15.9586L27.0505 15.9825L27.0347 16.0139L27.0226 16.037L27.0059 16.0696L26.9941 16.0921L26.9765 16.1257L26.9649 16.1474L26.9463 16.1822L26.935 16.2032L26.9156 16.2391L26.889 16.2878L26.8843 16.2966L26.8734 16.316L26.8522 16.3543L26.8416 16.373L26.8195 16.4125L26.8093 16.4304L26.7863 16.4709L26.7764 16.4881L26.7524 16.5298L26.743 16.5462L26.718 16.5891L26.7087 16.6047L26.6828 16.6489L26.6739 16.6636L26.647 16.7089L26.6387 16.7229L26.6108 16.7692L26.6027 16.7823L26.5737 16.8301L26.5661 16.8424L26.5359 16.8912L26.5289 16.9026L26.4976 16.9528L26.491 16.9631L26.4587 17.0144L26.4527 17.0241L26.4193 17.0767L26.4137 17.0853L26.3792 17.1392L26.3742 17.1468L26.3385 17.2019L26.3341 17.2087L26.2972 17.2651L26.2934 17.271L26.2553 17.3286L26.252 17.3335L26.2127 17.3923L26.21 17.3963L26.1696 17.4565L26.1676 17.4594L26.126 17.5209L26.1247 17.5229L26.0818 17.5857L26.081 17.5867L26.0369 17.6506C25.2855 17.537 24.4751 17.4479 23.6206 17.3875C23.5601 16.5329 23.471 15.7224 23.3575 14.9711C24.6755 14.0584 25.8184 13.4988 26.5879 13.4096C27.7106 13.4258 27.7106 13.7697 27.6066 14.3347L27.6064 14.3346ZM18.6124 14.9709C18.4988 15.7223 18.4096 16.5328 18.3492 17.3873C17.4948 17.4479 16.6843 17.5369 15.9331 17.6504C14.5934 15.7155 14.0141 14.1581 14.5672 13.605C15.3346 12.8376 17.8614 14.4511 18.6126 14.9709H18.6124ZM20.9848 17.296C20.8131 17.296 20.6423 17.2971 20.4727 17.2994C20.6441 17.1425 20.8149 16.9897 20.9848 16.8405L20.985 16.8404C21.1547 16.9894 21.3256 17.1426 21.4969 17.2994C21.3274 17.2972 21.1566 17.296 20.9848 17.296ZM22.913 18.0947C22.7916 17.9731 22.6699 17.8532 22.5484 17.7349C22.7805 17.7452 23.0094 17.7578 23.2351 17.7726C23.2499 17.9982 23.2624 18.2272 23.2727 18.4592C23.1543 18.3376 23.0346 18.216 22.913 18.0947ZM18.6969 21.5863C18.8153 21.7079 18.9352 21.8295 19.0567 21.951C19.1782 22.0725 19.2998 22.1924 19.4212 22.3108C19.1892 22.3004 18.9602 22.2879 18.7345 22.2731C18.7198 22.0474 18.7073 21.8184 18.697 21.5864L18.6969 21.5863ZM17.8024 20.0228C17.9514 19.8529 18.1046 19.6822 18.2614 19.5107C18.2592 19.6803 18.2581 19.851 18.2581 20.0228C18.2581 20.1946 18.2592 20.3654 18.2614 20.535C18.1047 20.3637 17.9516 20.1929 17.8024 20.0229V20.0228ZM20.4727 22.7461C20.6424 22.7483 20.8132 22.7494 20.9848 22.7494C21.1566 22.7494 21.3274 22.7483 21.4969 22.7461L21.4889 22.7534L21.4808 22.7608L21.4728 22.7681L21.4648 22.7754L21.4568 22.7828L21.4488 22.7902L21.4407 22.7975L21.4327 22.8048L21.4246 22.8121L21.4166 22.8193V22.8194L21.4085 22.8265L21.4005 22.8339L21.3924 22.8412L21.3844 22.8485L21.3763 22.8556L21.3683 22.863L21.3603 22.8703H21.3601L21.3521 22.8774V22.8775L21.3441 22.8847L21.336 22.8919L21.328 22.899L21.32 22.9063H21.3198L21.3118 22.9136L21.3039 22.9207L21.2958 22.928L21.2878 22.9351L21.2798 22.9424L21.2718 22.9496L21.2638 22.9567L21.2558 22.9639L21.2478 22.971L21.2399 22.9781L21.2398 22.9783L21.2318 22.9854L21.2237 22.9925V22.9927L21.2157 22.9998H21.2156L21.2079 23.0069L21.2077 23.007L21.1998 23.0141V23.0142L21.1918 23.0212L21.1838 23.0284H21.1837L21.1759 23.0355H21.1758L21.1679 23.0425V23.0427L21.1599 23.0497V23.0498L21.1519 23.0569V23.057L21.1439 23.064L21.1359 23.0711V23.0712L21.128 23.0782L21.1279 23.0784L21.1201 23.0854H21.12L21.1123 23.0924L21.1121 23.0926L21.1043 23.0996H21.1041L21.0962 23.1067L21.0882 23.1137L21.0881 23.1138L21.0802 23.1207L21.0801 23.1209L21.0722 23.1277V23.1279L21.0643 23.1349L21.0564 23.1419H21.0563L21.0484 23.1488L21.0483 23.149L21.0406 23.156H21.0404L21.0327 23.163H21.0325L21.0247 23.1699H21.0245L21.0166 23.177L21.0088 23.184L21.0008 23.191L20.9929 23.1979L20.9927 23.1981L20.985 23.2049L20.9849 23.2051C20.8151 23.0559 20.6443 22.9029 20.4729 22.746L20.4727 22.7461ZM24.1672 20.0227C24.0181 20.1928 23.8651 20.3635 23.7082 20.5349C23.7104 20.3652 23.7115 20.1944 23.7115 20.0227C23.7115 19.8509 23.7104 19.6803 23.7082 19.5106C23.865 19.6819 24.0181 19.8526 24.1672 20.0226V20.0227ZM19.0567 18.0947C18.9353 18.216 18.8153 18.3376 18.6969 18.4592C18.7072 18.2272 18.7196 17.9982 18.7344 17.7726C18.9601 17.7578 19.1891 17.7453 19.4211 17.7349C19.2996 17.8532 19.178 17.9732 19.0565 18.0947H19.0567ZM23.2727 21.5863C23.2624 21.8184 23.2499 22.0474 23.2351 22.273C23.0094 22.2877 22.7804 22.3003 22.5484 22.3106C22.6699 22.1924 22.7916 22.0724 22.913 21.9509C23.0346 21.8294 23.1543 21.7078 23.2727 21.5862V21.5863ZM20.6725 16.5699C20.4035 16.8091 20.1331 17.0567 19.8623 17.3122C19.49 17.3231 19.1234 17.3392 18.7642 17.3604C18.8229 16.612 18.9055 15.9047 19.0089 15.2526C19.5432 15.6408 20.1018 16.0824 20.6725 16.5699ZM16.2146 18.0468C16.8669 17.9437 17.5741 17.8608 18.3224 17.8021C18.3013 18.1614 18.2851 18.5278 18.2743 18.9002C18.0187 19.171 17.7711 19.4414 17.5321 19.7105C17.0443 19.1397 16.6029 18.5812 16.2146 18.0468ZM17.5321 20.3353C17.7711 20.6043 18.0188 20.8747 18.2743 21.1455C18.2851 21.5178 18.3014 21.8844 18.3224 22.2436C17.5741 22.1849 16.8669 22.1023 16.2146 21.9989C16.6028 21.4644 17.0443 20.906 17.5321 20.3353ZM19.8623 22.7334C20.1331 22.9889 20.4036 23.2367 20.6725 23.4757C20.1018 23.9633 19.5432 24.4049 19.009 24.7931C18.9056 24.1409 18.8228 23.4335 18.7642 22.6853C19.1235 22.7064 19.49 22.7225 19.8623 22.7334ZM21.2972 23.4757C21.5661 23.2367 21.8366 22.989 22.1075 22.7334C22.4798 22.7225 22.8464 22.7064 23.2056 22.6853C23.147 23.4335 23.0642 24.1409 22.9609 24.7931C22.4266 24.405 21.8681 23.9634 21.2972 23.4757ZM25.755 21.9988C25.1029 22.1022 24.3956 22.1849 23.6472 22.2436C23.6684 21.8843 23.6846 21.5178 23.6954 21.1455C23.9509 20.8747 24.1985 20.6041 24.4377 20.3352C24.9253 20.906 25.3668 21.4644 25.755 21.9988ZM24.4377 19.7107C24.1987 19.4415 23.951 19.1711 23.6955 18.9004C23.6846 18.5279 23.6684 18.1615 23.6473 17.8023C24.3957 17.8609 25.1029 17.9437 25.7551 18.047C25.3668 18.5813 24.9253 19.1399 24.4377 19.7107ZM22.1074 17.3123C21.8365 17.0568 21.5662 16.8092 21.2971 16.5701C21.8679 16.0826 22.4264 15.6408 22.9608 15.2527C23.0641 15.9049 23.1468 16.6121 23.2055 17.3605C22.8462 17.3394 22.4797 17.3233 22.1074 17.3123ZM22.627 18.3808C22.8556 18.6094 23.0781 18.8381 23.2944 19.0664C23.3027 19.3808 23.3071 19.6997 23.3071 20.0228C23.3071 20.3459 23.3027 20.665 23.2944 20.9794C23.0781 21.2076 22.8555 21.4364 22.627 21.665C22.3984 21.8935 22.1696 22.1161 21.9414 22.3325C21.627 22.3409 21.3081 22.3452 20.985 22.3452C20.6619 22.3452 20.3428 22.3408 20.0284 22.3325C19.8002 22.116 19.5714 21.8934 19.3428 21.665C19.1143 21.4365 18.8918 21.2076 18.6754 20.9794C18.667 20.665 18.6627 20.3459 18.6627 20.0228C18.6627 19.6997 18.667 19.3808 18.6754 19.0664C18.8917 18.8381 19.1143 18.6094 19.3428 18.3808C19.5713 18.1522 19.8002 17.9298 20.0284 17.7133C20.3428 17.705 20.6619 17.7007 20.985 17.7007C21.3081 17.7007 21.627 17.705 21.9414 17.7133C22.1696 17.9297 22.3984 18.1522 22.627 18.3808ZM18.6124 25.0747C16.6774 26.4145 15.1198 26.9936 14.567 26.4406C14.014 25.8877 14.5932 24.3301 15.9329 22.3952C16.6843 22.5088 17.4946 22.5979 18.349 22.6584C18.4096 23.5127 18.4987 24.3233 18.6123 25.0746L18.6124 25.0747ZM23.3573 25.0747C23.4708 24.3235 23.5599 23.5128 23.6204 22.6586C24.4749 22.5981 25.2853 22.5089 26.0367 22.3953C27.3765 24.3302 27.9556 25.8878 27.4027 26.4407C26.8496 26.9938 25.2922 26.4145 23.3573 25.0748V25.0747H23.3573ZM26.2348 21.9173C25.7838 21.3059 25.2734 20.6697 24.712 20.0228C25.2734 19.3761 25.7837 18.74 26.2348 18.1285C28.5502 18.5493 30.061 19.241 30.061 20.0228C30.061 20.8048 28.5501 21.4965 26.2348 21.9173ZM20.9848 16.2956C20.3379 15.734 19.7019 15.224 19.0904 14.7728C19.5111 12.4575 20.2029 10.9467 20.9848 10.9467C21.7668 10.9467 22.4585 12.4575 22.8793 14.7728C22.2677 15.2239 21.6316 15.7342 20.9848 16.2956Z" fill="white"/>
<path d="M16.0927 12.4211C16.5561 12.4211 16.932 12.7969 16.932 13.2603C16.932 13.7237 16.5561 14.0995 16.0927 14.0995C15.6292 14.0995 15.2534 13.7238 15.2534 13.2603C15.2534 12.7969 15.6292 12.4211 16.0927 12.4211Z" fill="#EC4B53"/>
<path d="M16.0291 12.4211C16.4575 12.4211 16.8048 12.7683 16.8048 13.1968C16.8048 13.6252 16.4574 13.9724 16.0291 13.9724C15.6008 13.9724 15.2534 13.6252 15.2534 13.1968C15.2534 12.7683 15.6007 12.4211 16.0291 12.4211Z" fill="#FF5B61"/>
<path d="M28.0049 13.1484C28.4684 13.1484 28.8442 13.5242 28.8442 13.9877C28.8442 14.4513 28.4685 14.8269 28.0049 14.8269C27.5415 14.8269 27.1656 14.4513 27.1656 13.9877C27.1657 13.5243 27.5415 13.1484 28.0049 13.1484Z" fill="#15BDB1"/>
<path d="M27.9413 13.1484C28.3696 13.1484 28.717 13.4956 28.717 13.9241C28.717 14.3525 28.3696 14.6997 27.9413 14.6997C27.513 14.6997 27.1656 14.3525 27.1656 13.9241C27.1655 13.4956 27.5129 13.1484 27.9413 13.1484Z" fill="#20D0C2"/>
<path d="M13.9784 20.8967C14.4418 20.8967 14.8177 21.2725 14.8177 21.736C14.8177 22.1996 14.4419 22.5752 13.9784 22.5752C13.515 22.5752 13.1391 22.1996 13.1391 21.736C13.1391 21.2726 13.515 20.8967 13.9784 20.8967Z" fill="#15BDB1"/>
<path d="M13.9147 20.8967C14.3431 20.8967 14.6903 21.2439 14.6903 21.6724C14.6903 22.1008 14.343 22.4481 13.9147 22.4481C13.4863 22.4481 13.1391 22.1009 13.1391 21.6725C13.1391 21.2439 13.4863 20.8967 13.9147 20.8967Z" fill="#20D0C2"/>
<path d="M22.6705 26.4207C23.1339 26.4207 23.5099 26.7963 23.5099 27.2598C23.5099 27.7234 23.134 28.099 22.6705 28.099C22.2071 28.099 21.8313 27.7234 21.8313 27.2598C21.8313 26.7964 22.2071 26.4207 22.6705 26.4207Z" fill="#EC4B53"/>
<path d="M22.6069 26.4207C23.0353 26.4207 23.3826 26.7679 23.3826 27.1963C23.3826 27.6247 23.0354 27.9719 22.6069 27.9719C22.1785 27.9719 21.8312 27.6247 21.8312 27.1963C21.8312 26.7679 22.1786 26.4207 22.6069 26.4207Z" fill="#FF5B61"/>
<path d="M20.9848 18.7356C21.6959 18.7356 22.2721 19.3119 22.2721 20.0228C22.2721 20.7337 21.6957 21.31 20.9848 21.31C20.274 21.31 19.6976 20.7338 19.6976 20.0228C19.6976 19.3119 20.2741 18.7356 20.9848 18.7356Z" fill="#F5A209"/>
<path d="M20.8874 18.7356C21.5445 18.7356 22.0771 19.2682 22.0771 19.9253C22.0771 20.5823 21.5444 21.1148 20.8874 21.1148C20.2305 21.1148 19.6978 20.5822 19.6978 19.9253C19.6978 19.2682 20.2305 18.7356 20.8874 18.7356Z" fill="#FBB429"/>
<defs>
<filter id="filter0_d" x="0" y="0" width="44" height="44" filterUnits="userSpaceOnUse" color-interpolation-filters="sRGB">
<feFlood flood-opacity="0" result="BackgroundImageFix"/>
<feColorMatrix in="SourceAlpha" type="matrix" values="0 0 0 0 0 0 0 0 0 0 0 0 0 0 0 0 0 0 127 0" result="hardAlpha"/>
<feOffset dx="1" dy="2"/>
<feGaussianBlur stdDeviation="1"/>
<feComposite in2="hardAlpha" operator="out"/>
<feColorMatrix type="matrix" values="0 0 0 0 0 0 0 0 0 0 0 0 0 0 0 0 0 0 0.35 0"/>
<feBlend mode="normal" in2="BackgroundImageFix" result="effect1_dropShadow"/>
<feBlend mode="normal" in="SourceGraphic" in2="effect1_dropShadow" result="shape"/>
</filter>
</defs>
</svg>
