<svg width="201" height="56" viewBox="0 0 201 56" fill="none" xmlns="http://www.w3.org/2000/svg">
<path d="M7.505 44.785C6.22167 44.785 4.99333 44.6017 3.82 44.235C2.68333 43.905 1.69333 43.1717 0.85 42.035C0.96 41.155 1.21667 39.8717 1.62 38.185C2.06 36.4983 2.59167 34.5917 3.215 32.465C3.83833 30.3017 4.49833 28.0833 5.195 25.81C5.89167 23.5367 6.57 21.3733 7.23 19.32C7.92667 17.23 8.53167 15.415 9.045 13.875C9.595 12.2983 9.99833 11.1617 10.255 10.465C10.365 10.1717 10.5483 9.73167 10.805 9.145C11.0617 8.55833 11.3917 7.95333 11.795 7.33C12.1983 6.70667 12.6567 6.19333 13.17 5.79C13.72 5.35 14.3067 5.13 14.93 5.13C15.5533 5.13 16.25 5.38667 17.02 5.9C15.8833 8.46667 14.7283 11.3267 13.555 14.48C12.4183 17.5967 11.3183 20.8233 10.255 24.16C9.22833 27.46 8.275 30.6867 7.395 33.84C6.55167 36.9567 5.855 39.8167 5.305 42.42C5.59833 42.53 6.00167 42.6033 6.515 42.64C7.065 42.7133 7.57833 42.75 8.055 42.75C10.4383 42.75 12.7117 42.1633 14.875 40.99C17.0383 39.8533 19.0183 38.3317 20.815 36.425C22.6483 34.4817 24.2433 32.3183 25.6 29.935C26.9567 27.515 28.0017 25.04 28.735 22.51C29.4683 19.98 29.835 17.56 29.835 15.25C29.835 12.28 29.3217 9.87833 28.295 8.045C27.305 6.175 25.93 4.81833 24.17 3.975C22.41 3.095 20.3933 2.655 18.12 2.655C15.7367 2.655 13.5917 3.095 11.685 3.975C9.77833 4.81833 8.275 5.99167 7.175 7.495C6.11167 8.96167 5.58 10.6483 5.58 12.555C5.58 12.9583 5.61667 13.3983 5.69 13.875C5.76333 14.315 5.89167 14.755 6.075 15.195C4.49833 15.195 3.36167 14.865 2.665 14.205C2.005 13.5083 1.675 12.665 1.675 11.675C1.675 10.3917 2.13333 9.09 3.05 7.77C4.00333 6.45 5.305 5.24 6.955 4.14C8.64167 3.00333 10.585 2.105 12.785 1.445C14.985 0.748332 17.3683 0.399998 19.935 0.399998C23.5283 0.399998 26.4067 1.09666 28.57 2.49C30.7333 3.84666 32.2917 5.69833 33.245 8.045C34.235 10.355 34.73 12.94 34.73 15.8C34.73 18.9533 34.2167 21.9783 33.19 24.875C32.2 27.735 30.8067 30.375 29.01 32.795C27.25 35.215 25.1967 37.3233 22.85 39.12C20.54 40.9167 18.065 42.31 15.425 43.3C12.8217 44.29 10.1817 44.785 7.505 44.785ZM44.3967 41.43C43.04 41.43 41.94 41.0633 41.0967 40.33C40.2533 39.6333 39.8317 38.68 39.8317 37.47C39.8317 36.4433 40.0883 35.3433 40.6017 34.17C41.115 32.9967 41.6283 31.8417 42.1417 30.705C42.6917 29.5683 42.9667 28.56 42.9667 27.68C42.9667 26.8367 42.6917 26.14 42.1417 25.59C41.5917 25.0033 40.95 24.5267 40.2167 24.16C39.41 26.1767 38.4933 28.1383 37.4667 30.045C36.4767 31.915 35.67 33.3817 35.0467 34.445L34.2217 32.85C34.735 31.8967 35.4133 30.54 36.2567 28.78C37.1 27.02 37.9067 25.0583 38.6767 22.895C38.31 22.5283 38.1267 22.0333 38.1267 21.41C38.1267 20.4567 38.42 19.5583 39.0067 18.715C39.5933 17.8717 40.1617 17.45 40.7117 17.45C41.1517 17.45 41.4633 17.7067 41.6467 18.22C41.8667 18.6967 41.9767 19.0267 41.9767 19.21C41.9767 19.3933 41.885 19.7233 41.7017 20.2C41.555 20.6767 41.445 21.025 41.3717 21.245C41.4083 21.6483 41.72 22.0517 42.3067 22.455C42.93 22.8217 43.6267 23.2617 44.3967 23.775C45.1667 24.2883 45.845 24.93 46.4317 25.7C47.0183 26.47 47.3117 27.4417 47.3117 28.615C47.3117 29.6783 47.0733 30.76 46.5967 31.86C46.12 32.96 45.6433 33.9867 45.1667 34.94C44.69 35.8933 44.4517 36.7183 44.4517 37.415C44.4517 37.9283 44.58 38.2767 44.8367 38.46C45.13 38.6067 45.46 38.68 45.8267 38.68C46.7067 38.68 47.6233 38.4233 48.5767 37.91C49.53 37.36 50.465 36.6633 51.3817 35.82C52.2983 34.9767 53.105 34.0967 53.8017 33.18C54.4983 32.2267 55.03 31.365 55.3967 30.595L56.7167 31.585C56.02 33.1617 55.0117 34.72 53.6917 36.26C52.3717 37.7633 50.905 39.01 49.2917 40C47.6783 40.9533 46.0467 41.43 44.3967 41.43ZM57.8321 41.76C56.1821 41.76 55.0455 41.21 54.4221 40.11C53.8355 39.0467 53.5421 37.8733 53.5421 36.59C53.5421 35.4167 53.7255 34.225 54.0921 33.015C54.4588 31.7683 54.9538 30.6133 55.5771 29.55C56.2371 28.4867 56.9521 27.6433 57.7221 27.02C58.5288 26.36 59.3355 26.03 60.1421 26.03C60.3988 26.03 60.6921 26.085 61.0221 26.195C61.3888 26.2683 61.6455 26.3967 61.7921 26.58C61.2055 27.3133 60.6005 28.2667 59.9771 29.44C59.3905 30.5767 58.8955 31.7683 58.4921 33.015C58.1255 34.2617 57.9421 35.3983 57.9421 36.425C57.9421 37.1583 58.0705 37.7633 58.3271 38.24C58.6205 38.7167 59.1155 38.955 59.8121 38.955C60.5088 38.955 61.3338 38.57 62.2871 37.8C63.2771 36.9933 64.2121 36.0767 65.0921 35.05C63.9188 33.9867 63.0755 32.8317 62.5621 31.585C62.0488 30.3017 61.7921 28.7617 61.7921 26.965C61.7921 26.195 61.9755 25.315 62.3421 24.325C62.7455 23.335 63.3688 22.4733 64.2121 21.74C65.0921 21.0067 66.2655 20.64 67.7321 20.64C69.3088 20.64 70.4088 21.08 71.0321 21.96C71.6921 22.84 72.0221 23.885 72.0221 25.095C72.0221 26.4517 71.6555 27.9733 70.9221 29.66C70.2255 31.3467 69.3821 32.9417 68.3921 34.445C68.8321 34.665 69.3455 34.775 69.9321 34.775C70.4821 34.775 71.1421 34.6467 71.9121 34.39C72.6821 34.1333 73.4338 33.7117 74.1671 33.125C74.9005 32.5017 75.4871 31.6767 75.9271 30.65L76.9171 31.365C76.1105 33.235 75.0288 34.61 73.6721 35.49C72.3521 36.3333 71.0505 36.755 69.7671 36.755C69.2905 36.755 68.8138 36.7183 68.3371 36.645C67.8605 36.535 67.4205 36.4067 67.0171 36.26C65.7705 37.7267 64.3405 39.01 62.7271 40.11C61.1138 41.21 59.4821 41.76 57.8321 41.76ZM66.5221 33.29C67.4021 32.0067 68.1538 30.6317 68.7771 29.165C69.4005 27.6983 69.7121 26.3417 69.7121 25.095C69.7121 23.4817 69.1988 22.675 68.1721 22.675C67.4755 22.675 66.7605 23.17 66.0271 24.16C65.2938 25.15 64.9271 26.3967 64.9271 27.9C64.9271 28.67 65.0555 29.605 65.3121 30.705C65.6055 31.805 66.0088 32.6667 66.5221 33.29ZM71.586 55.4C71.146 55.4 70.6877 55.235 70.211 54.905C69.6977 54.575 69.4227 54.2817 69.386 54.025C70.3027 51.3483 71.091 49.02 71.751 47.04C72.3743 45.0967 72.906 43.245 73.346 41.485C73.786 39.7617 74.1893 37.965 74.556 36.095C74.886 34.1883 75.216 32.025 75.546 29.605C75.9127 27.1483 76.316 24.1967 76.756 20.75C76.8293 20.31 76.921 19.9983 77.031 19.815C77.141 19.595 77.4893 19.485 78.076 19.485C79.2127 19.485 80.0377 19.7967 80.551 20.42C81.0643 21.0067 81.321 21.6667 81.321 22.4C81.321 23.28 81.0643 25.0033 80.551 27.57C81.2477 26.5067 82.036 25.4983 82.916 24.545C83.8327 23.5917 84.841 22.8217 85.941 22.235C87.041 21.6117 88.2327 21.3 89.516 21.3C91.3127 21.3 92.7977 21.905 93.971 23.115C95.1443 24.325 95.731 25.92 95.731 27.9C95.731 29.33 95.401 30.8517 94.741 32.465C94.1177 34.0417 93.2193 35.545 92.046 36.975C90.8727 38.3683 89.461 39.505 87.811 40.385C86.161 41.3017 84.346 41.76 82.366 41.76C81.1927 41.76 80.2577 41.6133 79.561 41.32C78.8643 41.0267 78.516 40.6967 78.516 40.33C78.516 40.0733 78.6443 39.9267 78.901 39.89C79.1943 39.8167 79.506 39.78 79.836 39.78C81.5593 39.7433 83.1177 39.3767 84.511 38.68C85.941 37.9833 87.1693 37.085 88.196 35.985C89.2227 34.8483 90.011 33.6383 90.561 32.355C91.111 31.0717 91.386 29.8067 91.386 28.56C91.386 27.46 91.1294 26.5067 90.616 25.7C90.1393 24.8933 89.3693 24.49 88.306 24.49C87.3893 24.49 86.4543 24.7833 85.501 25.37C84.5843 25.9567 83.7227 26.7083 82.916 27.625C82.1093 28.505 81.3943 29.44 80.771 30.43C80.1477 31.3833 79.671 32.2267 79.341 32.96C78.6443 35.38 78.0027 37.7817 77.416 40.165C76.866 42.585 76.3343 44.8217 75.821 46.875C75.3077 48.9283 74.7943 50.67 74.281 52.1C73.731 53.53 73.1443 54.5017 72.521 55.015C72.2277 55.2717 71.916 55.4 71.586 55.4ZM109.266 55.4C108.679 55.4 108.129 55.0883 107.616 54.465C107.139 53.8783 106.901 52.7417 106.901 51.055C106.901 49.9183 106.992 48.4883 107.176 46.765C107.396 45.0417 107.689 43.2083 108.056 41.265C108.459 39.3217 108.899 37.4883 109.376 35.765C107.909 37.5617 106.497 39.0467 105.141 40.22C103.784 41.3933 102.464 41.98 101.181 41.98C100.557 41.98 99.8791 41.7967 99.1457 41.43C98.4491 41.1 97.8624 40.5683 97.3857 39.835C96.8724 39.1017 96.6157 38.13 96.6157 36.92C96.6157 35.6367 96.9091 34.2433 97.4957 32.74C98.1191 31.2367 98.9441 29.7517 99.9707 28.285C101.034 26.8183 102.244 25.4983 103.601 24.325C104.957 23.115 106.406 22.1617 107.946 21.465C109.486 20.7317 111.044 20.365 112.621 20.365C114.014 20.365 115.187 20.6583 116.141 21.245C117.094 21.795 117.571 22.5283 117.571 23.445C117.571 23.7383 117.497 24.0867 117.351 24.49C117.241 24.8567 117.021 25.1317 116.691 25.315C116.361 25.4983 115.902 25.48 115.316 25.26C115.316 24.49 115.041 23.8667 114.491 23.39C113.941 22.9133 113.207 22.675 112.291 22.675C111.044 22.675 109.852 23.0233 108.716 23.72C107.616 24.38 106.607 25.2417 105.691 26.305C104.774 27.3683 103.967 28.5233 103.271 29.77C102.611 30.98 102.097 32.1533 101.731 33.29C101.364 34.4267 101.181 35.3983 101.181 36.205C101.181 36.865 101.327 37.4333 101.621 37.91C101.951 38.3867 102.409 38.625 102.996 38.625C103.692 38.625 104.444 38.2767 105.251 37.58C106.094 36.8833 106.956 35.985 107.836 34.885C108.716 33.7483 109.596 32.52 110.476 31.2C111.392 29.88 112.291 28.5967 113.171 27.35C113.501 26.8733 113.776 26.5067 113.996 26.25C114.216 25.9933 114.454 25.7367 114.711 25.48C114.894 25.2967 115.279 25.2783 115.866 25.425C116.489 25.5717 116.892 25.7367 117.076 25.92C117.369 26.2133 117.516 26.5617 117.516 26.965C117.516 27.735 117.222 28.5967 116.636 29.55C116.049 30.4667 115.371 31.64 114.601 33.07C113.867 34.4633 113.244 36.2417 112.731 38.405C114.234 38.2217 115.756 37.525 117.296 36.315C118.872 35.105 120.339 33.235 121.696 30.705L122.686 31.585C121.329 34.2983 119.771 36.315 118.011 37.635C116.287 38.955 114.527 39.7617 112.731 40.055C113.354 41.8517 113.666 43.7767 113.666 45.83C113.666 48.5433 113.262 50.8167 112.456 52.65C111.649 54.4833 110.586 55.4 109.266 55.4ZM110.421 51.825C110.641 51.825 110.806 51.495 110.916 50.835C111.062 50.2117 111.154 49.405 111.191 48.415C111.264 47.425 111.301 46.4533 111.301 45.5C111.301 44.8767 111.282 44.3817 111.246 44.015C111.246 43.6483 111.209 43.2817 111.136 42.915C110.842 44.3817 110.604 45.7383 110.421 46.985C110.274 48.2683 110.201 49.4967 110.201 50.67C110.201 51.1467 110.219 51.4583 110.256 51.605C110.292 51.7517 110.347 51.825 110.421 51.825ZM124.5 41.65C123.254 41.65 122.227 41.0817 121.42 39.945C120.65 38.7717 120.265 37.4333 120.265 35.93C120.265 34.9033 120.43 33.6933 120.76 32.3C121.09 30.9067 121.512 29.55 122.025 28.23C122.575 26.91 123.125 25.81 123.675 24.93C124.262 24.05 124.794 23.61 125.27 23.61C125.527 23.61 125.912 23.7567 126.425 24.05C126.975 24.3067 127.452 24.6367 127.855 25.04C127.452 25.6267 126.957 26.525 126.37 27.735C125.82 28.945 125.325 30.2467 124.885 31.64C124.445 33.0333 124.225 34.2983 124.225 35.435C124.225 35.5817 124.244 35.93 124.28 36.48C124.354 37.03 124.5 37.5433 124.72 38.02C124.94 38.4967 125.325 38.735 125.875 38.735C126.499 38.735 127.159 38.405 127.855 37.745C128.589 37.0483 129.322 36.1683 130.055 35.105C130.825 34.005 131.559 32.8317 132.255 31.585C132.989 30.3383 133.63 29.1283 134.18 27.955C134.767 26.7817 135.244 25.7917 135.61 24.985C135.94 25.0217 136.362 25.1133 136.875 25.26C137.425 25.4067 137.902 25.6083 138.305 25.865C138.709 26.085 138.91 26.415 138.91 26.855C138.91 26.965 138.727 27.4233 138.36 28.23C138.03 29 137.627 29.935 137.15 31.035C136.71 32.135 136.307 33.2717 135.94 34.445C135.61 35.5817 135.445 36.59 135.445 37.47C135.445 37.9833 135.537 38.4417 135.72 38.845C135.94 39.2117 136.344 39.395 136.93 39.395C137.7 39.395 138.617 39.0467 139.68 38.35C140.744 37.6533 141.844 36.645 142.98 35.325C144.117 34.005 145.125 32.4283 146.005 30.595L146.83 31.255C146.024 33.235 144.979 35.0133 143.695 36.59C142.412 38.1667 141.037 39.395 139.57 40.275C138.104 41.1917 136.674 41.65 135.28 41.65C134.217 41.65 133.41 41.3933 132.86 40.88C132.347 40.4033 131.999 39.78 131.815 39.01C131.632 38.2033 131.522 37.3967 131.485 36.59V35.49C130.862 36.48 130.184 37.4517 129.45 38.405C128.717 39.3217 127.929 40.0917 127.085 40.715C126.279 41.3383 125.417 41.65 124.5 41.65ZM150.978 42.42C148.631 42.42 146.816 41.7783 145.533 40.495C144.286 39.2483 143.663 37.6717 143.663 35.765C143.663 34.1517 144.066 32.4467 144.873 30.65C145.716 28.8167 146.834 27.1117 148.228 25.535C149.621 23.9217 151.161 22.62 152.848 21.63C154.534 20.64 156.221 20.145 157.908 20.145C158.861 20.145 159.759 20.4017 160.603 20.915C161.483 21.3917 161.923 22.3633 161.923 23.83C161.923 25.2233 161.519 26.525 160.713 27.735C159.906 28.945 158.824 30.0267 157.468 30.98C156.111 31.9333 154.608 32.7217 152.958 33.345C151.344 33.9317 149.713 34.3167 148.063 34.5C148.026 34.6467 147.989 34.8117 147.953 34.995C147.953 35.1417 147.953 35.3983 147.953 35.765C147.953 35.9483 147.971 36.2783 148.008 36.755C148.081 37.195 148.246 37.6717 148.503 38.185C148.759 38.6983 149.181 39.1383 149.768 39.505C150.354 39.8717 151.161 40.055 152.188 40.055C153.728 40.055 155.268 39.6333 156.808 38.79C158.384 37.91 159.851 36.755 161.208 35.325C162.601 33.895 163.756 32.3 164.673 30.54L165.773 31.42C164.783 33.62 163.499 35.545 161.923 37.195C160.383 38.845 158.659 40.1283 156.753 41.045C154.883 41.9617 152.958 42.42 150.978 42.42ZM148.668 32.465C149.621 32.355 150.684 32.025 151.858 31.475C153.031 30.925 154.149 30.2283 155.213 29.385C156.313 28.5417 157.211 27.625 157.908 26.635C158.604 25.6083 158.953 24.5817 158.953 23.555C158.953 23.1517 158.879 22.8767 158.733 22.73C158.586 22.5833 158.348 22.51 158.018 22.51C157.174 22.51 156.294 22.8217 155.378 23.445C154.461 24.0317 153.563 24.82 152.683 25.81C151.803 26.7633 151.014 27.8267 150.318 29C149.621 30.1733 149.071 31.3283 148.668 32.465ZM169.778 42.805C167.944 42.805 166.459 42.42 165.323 41.65C164.223 40.9167 163.434 39.9817 162.958 38.845C162.481 37.6717 162.243 36.48 162.243 35.27C162.243 34.2067 162.389 33.3817 162.683 32.795C162.976 32.2083 163.343 31.7867 163.783 31.53C164.223 31.2367 164.626 31.0167 164.993 30.87C165.396 30.7233 165.689 30.5583 165.873 30.375C166.789 29.4217 167.724 28.3217 168.678 27.075C169.668 25.7917 170.511 24.38 171.208 22.84V22.29C171.208 20.8233 171.446 19.7967 171.923 19.21C172.436 18.5867 173.023 18.275 173.683 18.275C174.123 18.275 174.434 18.385 174.618 18.605C174.838 18.825 174.966 19.0817 175.003 19.375C175.003 19.595 174.948 19.8517 174.838 20.145C174.764 20.4383 174.728 20.8417 174.728 21.355C174.728 22.455 174.984 23.72 175.498 25.15C176.048 26.5433 176.579 28.0283 177.093 29.605C177.643 31.1817 177.918 32.795 177.918 34.445C177.918 34.885 177.899 35.2883 177.863 35.655C177.826 36.0217 177.771 36.37 177.698 36.7C178.834 36.4067 179.953 35.7833 181.053 34.83C182.153 33.84 183.198 32.3917 184.188 30.485L184.848 30.98C184.151 33.07 183.143 34.7567 181.823 36.04C180.503 37.2867 178.963 38.0567 177.203 38.35C176.616 39.8533 175.644 40.9717 174.288 41.705C172.968 42.4383 171.464 42.805 169.778 42.805ZM173.353 36.59C173.426 36.3333 173.463 36.04 173.463 35.71C173.499 35.3433 173.518 35.0683 173.518 34.885C173.481 33.235 173.261 31.6033 172.858 29.99C172.454 28.3767 172.051 26.7267 171.648 25.04C170.988 26.1767 170.218 27.405 169.338 28.725C168.458 30.045 167.633 31.1083 166.863 31.915C167.449 32.905 168.311 33.84 169.448 34.72C170.584 35.6 171.886 36.2233 173.353 36.59ZM169.393 40.385C170.126 40.385 170.804 40.2017 171.428 39.835C172.051 39.4683 172.546 38.9367 172.913 38.24C171.409 37.91 170.053 37.3233 168.843 36.48C167.633 35.6367 166.698 34.775 166.038 33.895C165.524 34.005 165.268 34.5 165.268 35.38C165.268 36.59 165.616 37.7267 166.313 38.79C167.009 39.8533 168.036 40.385 169.393 40.385ZM187.63 42.53C186.017 42.53 184.715 42.0533 183.725 41.1C182.735 40.1467 182.24 38.6983 182.24 36.755C182.24 35.2517 182.515 33.3817 183.065 31.145C183.652 28.9083 184.385 26.5983 185.265 24.215C185.008 24.1417 184.697 24.0867 184.33 24.05C184 23.9767 183.67 23.8667 183.34 23.72V22.015C183.927 22.0883 184.403 22.1433 184.77 22.18C185.173 22.2167 185.577 22.2533 185.98 22.29C186.75 20.3467 187.575 18.4767 188.455 16.68C189.372 14.8467 190.27 13.215 191.15 11.785C192.067 10.355 192.928 9.23666 193.735 8.43C194.542 7.58667 195.257 7.165 195.88 7.165C196.247 7.165 196.595 7.31167 196.925 7.605C197.255 7.86167 197.42 8.24667 197.42 8.76C197.42 9.49333 197.035 10.5383 196.265 11.895C195.532 13.2517 194.615 14.8467 193.515 16.68C192.415 18.4767 191.352 20.4017 190.325 22.455H192.03C193.643 22.455 195.092 22.4367 196.375 22.4C197.695 22.3267 199.033 22.2167 200.39 22.07V23.885C198.373 24.0683 196.522 24.215 194.835 24.325C193.148 24.435 191.535 24.5083 189.995 24.545H189.335C188.565 26.3417 187.887 28.1933 187.3 30.1C186.75 31.97 186.475 33.8033 186.475 35.6C186.475 37.1033 186.713 38.1667 187.19 38.79C187.667 39.4133 188.418 39.725 189.445 39.725C191.278 39.725 193.148 38.9 195.055 37.25C196.998 35.5633 198.685 33.29 200.115 30.43L200.885 30.98C199.932 33.1433 198.74 35.105 197.31 36.865C195.917 38.625 194.395 40 192.745 40.99C191.095 42.0167 189.39 42.53 187.63 42.53Z" fill="black"/>
</svg>
