<svg width="283" height="283" viewBox="0 0 283 283" fill="none" xmlns="http://www.w3.org/2000/svg">
<rect width="283" height="283" rx="34" fill="url(#paint0_linear)"/>
<rect width="283" height="283" rx="34" fill="url(#paint1_linear)" fill-opacity="0.3"/>
<path d="M174.812 132.625C182.579 132.625 188.875 126.329 188.875 118.562C188.875 110.796 182.579 104.5 174.812 104.5C167.046 104.5 160.75 110.796 160.75 118.562C160.75 126.329 167.046 132.625 174.812 132.625Z" fill="white"/>
<path d="M109.188 132.625C116.954 132.625 123.25 126.329 123.25 118.562C123.25 110.796 116.954 104.5 109.188 104.5C101.421 104.5 95.125 110.796 95.125 118.562C95.125 126.329 101.421 132.625 109.188 132.625Z" fill="white"/>
<path d="M175.085 76.65C174.828 76.65 174.58 76.685 174.323 76.69C176.289 74.3661 178.022 71.8549 179.498 69.1925C179.498 69.1925 159.63 84.52 141.998 67C124.365 84.52 104.498 69.1925 104.498 69.1925C105.972 71.8542 107.704 74.3653 109.667 76.69C109.412 76.685 109.165 76.65 108.908 76.65C85.8025 76.65 67 95.4525 67 118.562C67 130.35 71.9075 140.997 79.765 148.617C80.8575 161.407 85.39 181.788 102.272 194.735C100.412 195.258 98.8825 196.713 98.8825 199.13C98.8825 205.303 103.883 214.498 103.883 214.498C103.883 214.498 106.652 209.395 108.07 204.24C109.487 210.665 112.24 217 112.24 217C112.24 217 114.995 210.665 116.415 204.242C117.83 209.397 120.597 214.5 120.597 214.5C120.597 214.5 122.42 211.142 123.863 207.13C129.63 209.444 135.786 210.636 142 210.643C148.35 210.643 154.448 209.395 160.135 207.13C161.58 211.142 163.397 214.5 163.397 214.5C163.397 214.5 166.17 209.397 167.588 204.242C169.005 210.665 171.755 217 171.755 217C171.755 217 174.51 210.665 175.93 204.242C177.347 209.397 180.115 214.5 180.115 214.5C180.115 214.5 185.115 205.303 185.115 199.133C185.115 196.715 183.587 195.26 181.727 194.738C198.607 181.788 203.14 161.41 204.233 148.62C212.09 140.997 217 130.35 217 118.562C217 95.4525 198.198 76.65 175.085 76.65ZM147.65 87.7275C150.247 82.5525 153.72 78.7175 153.72 78.7175C153.72 78.7175 152.997 83.285 150.41 88.4575C148.758 91.6941 146.722 94.7193 144.345 97.4675C144.345 97.4675 145.062 92.9 147.65 87.7275ZM142 71.6875C142 71.6875 143.173 77.9875 143.173 85.75C143.173 93.5125 142 99.8125 142 99.8125C142 99.8125 140.828 93.5125 140.828 85.75C140.828 77.9875 142 71.6875 142 71.6875ZM119.295 174.385L123.167 170.005L127.043 174.385L130.915 178.765L127.043 183.145L123.167 187.527L119.295 183.145L115.42 178.765L119.295 174.385ZM113.753 176.878L109.877 172.498L106.005 168.117L112.94 160.267C113.427 160.22 113.903 160.135 114.385 160.073L121.497 168.117L117.623 172.498L113.753 176.878V176.878ZM124.838 168.117L132.582 159.355L140.333 168.117L136.458 172.498L132.582 176.878L128.71 172.498L124.838 168.117ZM128.71 185.035L132.582 180.652L136.458 185.035L140.333 189.415L132.582 198.178L124.838 189.415L128.71 185.035ZM138.125 183.145L134.25 178.765L138.125 174.385L142 170.005L145.872 174.385L149.747 178.765L145.872 183.145L142 187.527L138.125 183.145V183.145ZM143.667 168.117L151.415 159.355L159.16 168.117L155.287 172.498L151.415 176.878L147.542 172.498L143.667 168.117V168.117ZM147.542 185.035L151.415 180.652L155.287 185.035L159.16 189.415L151.415 198.178L143.667 189.415L147.542 185.035V185.035ZM156.955 183.145L153.082 178.765L156.955 174.385L160.827 170.005L164.703 174.385L168.578 178.765L164.703 183.145L160.827 187.527L156.955 183.145ZM166.37 172.498L162.498 168.117L169.61 160.073C170.09 160.135 170.565 160.222 171.052 160.267L177.99 168.117L174.118 172.498L170.243 176.878L166.37 172.498V172.498ZM160.827 166.23L151.412 155.58L142 166.23L132.58 155.58L123.165 166.23L117.325 159.622C123.051 158.44 128.46 156.055 133.195 152.625C134.962 156.078 137.419 159.131 140.412 161.598L142 162.9L143.585 161.598C146.579 159.132 149.036 156.078 150.802 152.625C155.538 156.053 160.947 158.438 166.672 159.622L160.827 166.23V166.23ZM142 156.31C137.547 151.927 135.028 145.967 135.028 139.657C135.028 133.347 137.547 127.388 142 123.005C146.453 127.388 148.967 133.347 148.967 139.657C148.967 145.967 146.453 151.927 142 156.31ZM136.345 87.7275C138.933 92.9 139.655 97.4675 139.655 97.4675C139.655 97.4675 136.183 93.6325 133.585 88.4575C130.998 83.285 130.28 78.7175 130.28 78.7175C130.28 78.7175 133.753 82.5525 136.345 87.7275V87.7275ZM76.375 118.562C76.375 100.445 91.07 85.75 109.188 85.75C126.607 85.75 140.823 99.345 141.895 116.497L140.412 117.712C137.161 120.37 134.543 123.718 132.746 127.513C130.95 131.308 130.021 135.456 130.028 139.655C130.028 140.995 130.155 142.315 130.337 143.622C124.431 148.635 116.934 151.383 109.188 151.375C91.07 151.375 76.375 136.68 76.375 118.562V118.562ZM104.712 160.263C106.108 160.404 107.51 160.475 108.912 160.475C109.092 160.475 109.27 160.45 109.453 160.448L104.638 165.892C104.611 164.015 104.636 162.138 104.712 160.263V160.263ZM104.807 170.538L108.21 174.385L112.083 178.765L108.21 183.145L106.818 184.72C105.773 180.053 105.101 175.311 104.807 170.538V170.538ZM110.26 192.518C109.611 191.907 108.978 191.281 108.36 190.64C108.072 189.658 107.798 188.671 107.54 187.68L109.88 185.033L113.755 180.65L117.627 185.033L121.503 189.413L116.585 194.975C115.357 192.295 112.518 191.473 110.26 192.518V192.518ZM158.397 199.133C158.397 200.123 158.54 201.198 158.755 202.295C153.505 204.455 147.87 205.645 142.002 205.645C136.135 205.645 130.497 204.455 125.247 202.295C125.465 201.2 125.602 200.125 125.602 199.133C125.602 195.91 122.89 194.418 120.29 194.563L123.17 191.303L132.585 201.952L142 191.303L151.415 201.952L160.83 191.303L163.713 194.563C161.113 194.418 158.397 195.908 158.397 199.133V199.133ZM175.638 190.64C175.018 191.283 174.382 191.91 173.737 192.518C171.482 191.473 168.64 192.295 167.415 194.975L162.498 189.413L166.37 185.033L170.245 180.65L174.12 185.033L176.46 187.68C176.183 188.74 175.908 189.725 175.638 190.64V190.64ZM177.18 184.72L175.785 183.145L171.91 178.765L175.785 174.385L179.188 170.538C178.843 176.063 178.065 180.788 177.18 184.72V184.72ZM174.545 160.448C174.73 160.45 174.908 160.475 175.088 160.475C176.505 160.475 177.905 160.403 179.288 160.263C179.365 162.213 179.39 164.09 179.362 165.895L174.545 160.448ZM174.812 151.375C167.065 151.383 159.567 148.635 153.66 143.622C153.843 142.317 153.967 140.995 153.967 139.655C153.967 131.125 150.182 123.127 143.585 117.712L142.103 116.497C143.175 99.345 157.39 85.75 174.812 85.75C192.927 85.75 207.625 100.445 207.625 118.562C207.625 136.68 192.927 151.375 174.812 151.375" fill="white"/>
<defs>
<linearGradient id="paint0_linear" x1="142" y1="186" x2="142" y2="73" gradientUnits="userSpaceOnUse">
<stop stop-color="#FC575E"/>
<stop offset="1" stop-color="#FFB401"/>
</linearGradient>
<linearGradient id="paint1_linear" x1="141" y1="345.5" x2="141" y2="72.5" gradientUnits="userSpaceOnUse">
<stop stop-color="#FFB401"/>
<stop offset="0.479167" stop-color="white" stop-opacity="0.3"/>
<stop offset="0.744792" stop-color="white" stop-opacity="0.591667"/>
<stop offset="0.921875" stop-color="#FC575E"/>
</linearGradient>
</defs>
</svg>
