<svg width="19" height="19" viewBox="0 0 19 19" fill="none" xmlns="http://www.w3.org/2000/svg">
<path d="M5.44113 13.5606C3.9805 12.5235 2.82467 11.1745 2.17155 10.3227C1.98891 10.0876 1.88977 9.7983 1.88977 9.50056C1.88977 9.20282 1.98891 8.91356 2.17155 8.67841C3.3535 7.13545 6.18925 3.9585 9.5 3.9585C10.9852 3.9585 12.3738 4.59737 13.5613 5.44208" stroke="black" stroke-width="1.25" stroke-linecap="round" stroke-linejoin="round"/>
<path d="M11.1863 7.82723C10.9664 7.60371 10.7045 7.42594 10.4156 7.30416C10.1267 7.18238 9.81654 7.11901 9.50302 7.1177C9.18951 7.11638 8.87884 7.17716 8.58893 7.29651C8.29902 7.41586 8.03561 7.59144 7.81389 7.8131C7.59218 8.03476 7.41654 8.29813 7.29712 8.58801C7.1777 8.87789 7.11685 9.18855 7.11809 9.50207C7.11933 9.81558 7.18263 10.1257 7.30434 10.4147C7.42605 10.7036 7.60376 10.9656 7.82722 11.1855" stroke="black" stroke-width="1.25" stroke-linecap="round" stroke-linejoin="round"/>
<path d="M3.16666 15.8334L15.8333 3.16675" stroke="black" stroke-width="1.25" stroke-linecap="round" stroke-linejoin="round"/>
<path d="M7.91666 14.8073C8.43061 14.9603 8.96376 15.0392 9.49999 15.0417C12.8107 15.0417 15.6465 11.8647 16.8284 10.3218C17.011 10.0864 17.1101 9.79695 17.1099 9.49907C17.1098 9.2012 17.0105 8.91185 16.8277 8.67667C16.4123 8.13476 15.9666 7.61672 15.4929 7.125" stroke="black" stroke-width="1.25" stroke-linecap="round" stroke-linejoin="round"/>
</svg>
