<svg width="20" height="20" viewBox="0 0 20 20" fill="none" xmlns="http://www.w3.org/2000/svg">
<path d="M9.99999 18.3333C5.39749 18.3333 1.66666 14.6025 1.66666 9.99996C1.66666 5.39746 5.39749 1.66663 9.99999 1.66663C14.6025 1.66663 18.3333 5.39746 18.3333 9.99996C18.3283 14.6 14.6 18.3283 9.99999 18.3333ZM3.33332 10.1433C3.35226 11.9051 4.06786 13.5878 5.32372 14.8235C6.57958 16.0593 8.27356 16.7477 10.0354 16.7382C11.7973 16.7287 13.4838 16.0222 14.7263 14.773C15.9688 13.5238 16.6663 11.8335 16.6663 10.0716C16.6663 8.30972 15.9688 6.61946 14.7263 5.37027C13.4838 4.12107 11.7973 3.41453 10.0354 3.40506C8.27356 3.39559 6.57958 4.08396 5.32372 5.31973C4.06786 6.55549 3.35226 8.23816 3.33332 9.99996V10.1433ZM8.33332 13.75V6.24996L13.3333 9.99996L8.33332 13.75Z" fill="#2F2C2C"/>
</svg>
