<svg width="14" height="14" viewBox="0 0 14 14" fill="none" xmlns="http://www.w3.org/2000/svg">
<path d="M11.3203 9.67969C10.9922 9.35156 10.6185 9.2513 10.1992 9.37891L9.32422 8.50391C10.1081 7.53776 10.5 6.45312 10.5 5.25C10.5 3.79167 9.98958 2.55208 8.96875 1.53125C7.94792 0.510417 6.70833 0 5.25 0C3.79167 0 2.55208 0.510417 1.53125 1.53125C0.510417 2.55208 0 3.79167 0 5.25C0 6.70833 0.510417 7.94792 1.53125 8.96875C2.55208 9.98958 3.79167 10.5 5.25 10.5C6.52604 10.5 7.61068 10.1081 8.50391 9.32422L9.37891 10.1992C9.26953 10.6367 9.36979 11.0104 9.67969 11.3203L12.0039 13.6445C12.2409 13.8815 12.5143 14 12.8242 14C13.1523 14 13.4258 13.8815 13.6445 13.6445C13.8815 13.4076 14 13.1341 14 12.8242C14 12.5143 13.8815 12.2409 13.6445 12.0039L11.3203 9.67969ZM5.25 9.32422C4.11979 9.32422 3.1582 8.92773 2.36523 8.13477C1.57227 7.3418 1.17578 6.38021 1.17578 5.25C1.17578 4.11979 1.57227 3.1582 2.36523 2.36523C3.1582 1.57227 4.11979 1.17578 5.25 1.17578C6.38021 1.17578 7.3418 1.57227 8.13477 2.36523C8.92773 3.1582 9.32422 4.11979 9.32422 5.25C9.32422 6.38021 8.92773 7.3418 8.13477 8.13477C7.3418 8.92773 6.38021 9.32422 5.25 9.32422Z" fill="#685C5C"/>
</svg>
