<svg width="14" height="14" viewBox="0 0 14 14" fill="none" xmlns="http://www.w3.org/2000/svg">
<g clip-path="url(#clip0)">
<path fill-rule="evenodd" clip-rule="evenodd" d="M9.85682 0.823486H2.53811V1.67255H-0.0065918V5.65513C-0.0065918 7.19431 1.71129 8.4609 3.39705 8.59266C3.95047 9.1856 4.92388 9.61631 5.79023 9.79996V10.8409C4.96176 11.0954 3.48188 11.6933 3.39705 12.3447H9.0827C8.99706 11.6933 7.36647 11.0945 6.53635 10.8409V9.79996C7.406 9.61631 8.42305 9.1856 8.97729 8.59266C10.6622 8.4609 12.3043 7.19431 12.3043 5.65513V1.67255H9.85682V0.823486ZM0.774938 2.4269H2.47882V5.85772C2.47882 6.53466 2.65341 7.17866 2.96058 7.75843C1.68576 7.35243 0.774938 6.30655 0.774938 5.08278V2.4269ZM7.44882 6.61125L6.17729 5.91043L4.90411 6.61125L5.14705 5.1289L4.11764 4.07972L5.53988 3.86313L6.17729 2.51584L6.81306 3.86313L8.23529 4.07972L7.20588 5.1289L7.44882 6.61125ZM9.33882 7.86796C9.64764 7.26184 9.8247 6.59149 9.8247 5.88243V2.44913H11.5327V5.0729C11.5327 6.35184 10.6178 7.44384 9.33882 7.86796Z" fill="#262626"/>
</g>
<defs>
<clipPath id="clip0">
<rect width="14" height="13.1765" fill="white"/>
</clipPath>
</defs>
</svg>
