<svg width="14" height="14" viewBox="0 0 14 14" fill="none" xmlns="http://www.w3.org/2000/svg">
<path d="M7.03893 4.27783C5.52227 4.27783 4.31671 5.48339 4.31671 7.00005C4.31671 8.51672 5.52227 9.72228 7.03893 9.72228C8.5556 9.72228 9.76115 8.51672 9.76115 7.00005C9.76115 5.48339 8.5556 4.27783 7.03893 4.27783ZM7.03893 8.9445C5.95004 8.9445 5.09449 8.08894 5.09449 7.00005C5.09449 5.91117 5.95004 5.05561 7.03893 5.05561C8.12782 5.05561 8.98338 5.91117 8.98338 7.00005C8.98338 8.08894 8.12782 8.9445 7.03893 8.9445Z" fill="#262626"/>
<path d="M12.7555 5.71672L11.6667 5.36672L11.4333 4.78339L11.9778 3.77228C12.0944 3.53894 12.0555 3.22783 11.8611 3.03339L10.9278 2.10005C10.7333 1.90561 10.4222 1.86672 10.1889 1.98339L9.17777 2.52783L8.59444 2.2945L8.24444 1.20561C8.16666 0.972276 7.93333 0.777832 7.6611 0.777832H6.33888C6.06666 0.777832 5.83333 0.972277 5.79444 1.2445L5.44444 2.33339C5.2111 2.37228 5.01666 2.45005 4.82222 2.56672L3.8111 2.02228C3.57777 1.90561 3.26666 1.9445 3.07222 2.13894L2.13888 3.07228C1.94444 3.26672 1.90555 3.57783 2.02222 3.81117L2.52777 4.78339C2.44999 4.97783 2.37222 5.21117 2.29444 5.40561L1.20555 5.75561C0.972215 5.83339 0.777771 6.06672 0.777771 6.33894V7.66117C0.777771 7.93339 0.972215 8.16672 1.24444 8.2445L2.33333 8.5945L2.56666 9.17783L2.02222 10.1889C1.90555 10.4223 1.94444 10.7334 2.13888 10.9278L3.07222 11.8612C3.26666 12.0556 3.57777 12.0945 3.8111 11.9778L4.82222 11.4334L5.40555 11.6667L5.75555 12.7945C5.83333 13.0278 6.06666 13.2223 6.33888 13.2223H7.6611C7.93333 13.2223 8.16666 13.0278 8.24444 12.7945L8.59444 11.6667L9.17777 11.4334L10.1889 11.9778C10.4222 12.0945 10.7333 12.0556 10.9278 11.8612L11.8611 10.9278C12.0555 10.7334 12.0944 10.4223 11.9778 10.1889L11.4333 9.17783L11.6667 8.5945L12.7944 8.2445C13.0278 8.16672 13.2222 7.93339 13.2222 7.66117V6.33894C13.2222 6.06672 13.0278 5.7945 12.7555 5.71672ZM12.4444 7.5445L11.0444 7.97228L11.0055 8.16672L10.6555 8.98339L10.5389 9.17783L11.2389 10.4612L10.4611 11.2389L9.17777 10.5389L8.98333 10.6556C8.7111 10.8112 8.43888 10.9278 8.16666 11.0056L7.97222 11.0445L7.54444 12.4445H6.45555L6.02777 11.0445L5.83333 11.0056L5.01666 10.6556L4.82222 10.5389L3.53888 11.2389L2.7611 10.4612L3.4611 9.17783L3.34444 8.98339C3.18888 8.71117 3.07222 8.43894 2.99444 8.16672L2.95555 7.97228L1.55555 7.5445V6.45561L2.87777 6.06672L2.95555 5.87228C3.03333 5.56117 3.14999 5.28894 3.30555 5.01672L3.42222 4.82228L2.7611 3.53894L3.53888 2.76117L4.78333 3.46117L4.97777 3.3445C5.24999 3.18894 5.52222 3.07228 5.83333 2.9945L6.02777 2.91672L6.45555 1.55561H7.54444L7.97222 2.91672L8.16666 2.9945C8.43888 3.07228 8.7111 3.18894 8.98333 3.3445L9.17777 3.46117L10.4611 2.76117L11.2389 3.53894L10.5389 4.82228L10.6555 5.01672C10.8111 5.28894 10.9278 5.56117 11.0055 5.83339L11.0444 6.02783L12.4444 6.45561V7.5445Z" fill="#262626"/>
</svg>
