<svg width="32" height="32" viewBox="0 0 32 32" fill="none" xmlns="http://www.w3.org/2000/svg">
<path d="M8.05001 24.2501C7.80001 24.2001 7.60001 24.1501 7.35001 24.0501C7.10001 23.9501 6.90001 23.9001 6.70001 23.8001C6.25001 23.6001 5.85001 23.3501 5.45001 23.0501C4.65001 22.5001 4.00001 21.7501 3.50001 20.8501C3.00001 20.0001 2.70001 19.0001 2.65001 18.0501C2.60001 17.5501 2.65001 17.1001 2.70001 16.6001C2.75001 16.3501 2.80001 16.1501 2.85001 15.9001C2.90001 15.6501 3.00001 15.4501 3.05001 15.2001L3.10001 15.9001C3.10001 16.1501 3.15001 16.3501 3.20001 16.6001C3.25001 17.0501 3.35001 17.5001 3.45001 17.9001C3.65001 18.7501 3.95001 19.5501 4.40001 20.3001C4.85001 21.0501 5.35001 21.7501 6.00001 22.4001C6.30001 22.7001 6.65001 23.0001 7.00001 23.3001C7.15001 23.4501 7.35001 23.6001 7.55001 23.7501L8.05001 24.2501Z" fill="#42ADE2"/>
<path d="M7.9 26.0501C7.75 26.1501 7.55 26.2001 7.35 26.2501C7.15 26.3001 7 26.3501 6.8 26.3501C6.45 26.4001 6.05 26.4501 5.65 26.4001C4.9 26.3501 4.1 26.1501 3.45 25.8001C2.75 25.4501 2.15 24.9001 1.75 24.2501C1.55 23.9501 1.35 23.6001 1.2 23.2501C1.15 23.1001 1.1 22.9001 1.05 22.7001C1.05 22.5501 1 22.4001 1 22.2001C1.15 22.3501 1.25 22.5001 1.35 22.6001C1.5 22.7501 1.6 22.9001 1.7 23.0001C1.95 23.2501 2.15 23.5001 2.4 23.7001C2.9 24.1501 3.4 24.5501 4 24.8501C4.55 25.1501 5.2 25.4001 5.8 25.6001C6.1 25.7001 6.45 25.7501 6.8 25.8501C6.95 25.9001 7.15 25.9001 7.3 25.9501C7.55 26.0001 7.7 26.0001 7.9 26.0501Z" fill="#42ADE2"/>
<path d="M19.2 1.75C19.45 1.8 19.65 1.9 19.9 2C20.15 2.1 20.35 2.2 20.55 2.3C21 2.55 21.4 2.8 21.8 3.1C22.6 3.7 23.25 4.5 23.7 5.4C24.15 6.3 24.4 7.3 24.4 8.25C24.4 8.75 24.35 9.2 24.25 9.7C24.2 9.95 24.15 10.15 24.05 10.4C23.95 10.65 23.9 10.85 23.8 11.05L23.75 10.35C23.75 10.1 23.75 9.9 23.7 9.65L23.55 8.3C23.4 7.45 23.1 6.6 22.7 5.8C22.3 5 21.8 4.3 21.2 3.65C20.9 3.3 20.55 3 20.25 2.65C20.1 2.5 19.9 2.35 19.7 2.2L19.2 1.75Z" fill="#42ADE2"/>
<path d="M23.55 1.55005C23.75 1.60005 23.9 1.65005 24.05 1.75005C24.2 1.80005 24.4 1.90005 24.55 2.00005C24.85 2.20005 25.15 2.40005 25.45 2.65005C26 3.15005 26.45 3.75005 26.7 4.45005C27 5.15005 27.1 5.90005 27 6.65005C26.95 7.00005 26.85 7.35005 26.75 7.70005C26.7 7.85005 26.6 8.05005 26.55 8.20005C26.45 8.35005 26.4 8.50005 26.25 8.65005V7.65005C26.25 7.30005 26.2 7.00005 26.2 6.70005C26.1 6.05005 26 5.45005 25.75 4.90005C25.5 4.30005 25.2 3.80005 24.85 3.25005C24.65 3.00005 24.45 2.70005 24.25 2.45005C24.15 2.30005 24.05 2.20005 23.9 2.05005C23.8 1.80005 23.65 1.65005 23.55 1.55005Z" fill="#42ADE2"/>
<path d="M5 9.00002C4 9.45002 3.65 10.65 4.1 11.65L10.4 24.8L13.9 23.15L7.6 9.95002C7.15 8.95002 6 8.50002 5 9.00002Z" fill="#FFDD67"/>
<path d="M21.55 19.45L25.25 17.7L18.05 2.70002C17.55 1.70002 16.35 1.25002 15.3 1.75002C14.3 2.25002 13.85 3.45002 14.35 4.50002L21.55 19.45Z" fill="#FFDD67"/>
<path d="M15.35 1.69999C15.25 1.74999 15.15 1.79999 15.05 1.89999C16 1.64999 17 2.09999 17.45 2.99999L24.65 18L25.3 17.7L18.1 2.69999C17.6 1.64999 16.4 1.19999 15.35 1.69999Z" fill="#EBA352"/>
<path d="M13.9 23.1L17.75 21.25L10.4 5.95004C9.89999 4.90004 8.59999 4.40004 7.54999 4.90004C6.5 5.40004 6.05 6.70004 6.55 7.75004L13.9 23.1Z" fill="#FFDD67"/>
<path d="M7.55 4.95003C7.45 5.00003 7.35 5.05003 7.25 5.15003C8.2 4.90003 9.3 5.35003 9.75 6.30003L14.3 15.85L15.4 16.5L10.4 6.00003C9.9 4.90003 8.65 4.45003 7.55 4.95003Z" fill="#EBA352"/>
<path d="M17.15 20.05L21 18.2L13.65 2.89997C13.15 1.84997 11.85 1.34997 10.8 1.89997C9.75 2.39997 9.3 3.69997 9.8 4.74997L17.15 20.05Z" fill="#FFDD67"/>
<path d="M10.8 1.84994C10.7 1.89994 10.6 1.99994 10.5 2.04994C11.45 1.79994 12.55 2.24994 13 3.19994L18.15 13.9999L19.25 14.6499L13.65 2.89994C13.15 1.79994 11.85 1.34994 10.8 1.84994Z" fill="#EBA352"/>
<path d="M5.00001 8.99992C4.90001 9.04992 4.80001 9.09992 4.70001 9.19992C5.60001 8.94992 6.55001 9.39992 6.95001 10.2999L10.7 18.1499L11.8 18.7999L7.60001 9.99992C7.15001 8.94992 6.00001 8.49992 5.00001 8.99992Z" fill="#EBA352"/>
<path d="M30.4 7.49996C29.05 6.44996 26.85 7.59996 25.75 11.2C25 13.7 24.9 14.45 23.3 15.2L22.4 13.35C22.4 13.35 8.20001 20.2 8.75001 21.3C8.75001 21.3 10.45 26.6 13.35 29.05C17.65 32.75 27.7 28.8 28.15 19.25C28.4 13.7 31.85 8.64996 30.4 7.49996Z" fill="#FFDD67"/>
<path d="M30.4 7.50002C30.15 7.30002 29.85 7.20002 29.55 7.15002C29.6 7.20002 29.7 7.20002 29.75 7.25002C31.25 8.40002 29.7 11.05 28.85 13.45C28.15 15.35 27.55 17.3 27.65 19.2C28.05 27.5 19.7 31.45 14.7 29.95C19.6 32 28.7 28.1 28.3 19.45C28.2 17.55 28.75 15.7 29.5 13.7C30.3 11.3 31.85 8.65002 30.4 7.50002Z" fill="#EBA352"/>
<path d="M23.75 15C20.65 15.35 16.1 19.8 19.3 24.65C16.95 19.75 20.8 16.45 23.25 15.3C23.5 15.1 23.75 15 23.75 15Z" fill="#EBA352"/>
</svg>
