<svg width="16" height="16" viewBox="0 0 16 16" fill="none" xmlns="http://www.w3.org/2000/svg">
<path d="M12.5575 0.967955L7.99873 5.5267C6.47873 4.0077 4.95898 2.4877 3.43998 0.967955C0.146481 0.400205 0.398731 0.147955 0.966481 3.44195C2.48573 4.96045 4.00623 6.4807 5.52473 7.99995L0.966481 12.5582C0.398731 15.8517 0.146481 15.5995 3.43998 15.032C4.95923 13.5122 6.47898 11.9922 7.99873 10.473C9.51873 11.9927 11.0372 13.5122 12.5575 15.032C15.8507 15.5995 15.5985 15.8517 15.0312 12.559C13.5112 11.0387 11.9912 9.51945 10.4715 7.99995C11.9915 6.4802 13.5115 4.9602 15.0312 3.4412C15.5985 0.147955 15.8507 0.400205 12.5575 0.967955Z" fill="#922A25"/>
</svg>
